
<svg width="100px" height="932px" viewBox="-6951 -3684 429 932" version="1.1" xmlns="http://www.w3.org/2000/svg" xmlns:xlink="http://www.w3.org/1999/xlink">
    <!-- Generator: Sketch 42 (36781) - http://www.bohemiancoding.com/sketch -->
    <desc>Created with Sketch.</desc>
    <defs>
        <path d="M-15.5769698,33.1710312 C7.48096044,22.1900121 68.7482854,32.0467617 68.7482854,32.0467617 C73.1149059,32.6676786 77.5647213,36.6294572 78.5515902,40.9515055 C78.5515902,40.9515055 86.2812976,66.1374011 76.6547512,77.0951077 C67.0282048,88.0528144 -7.645806,78.0623754 -7.645806,78.0623754 C-12.0260668,77.5281682 -17.4985203,74.0735951 -19.653002,70.2267852 C-19.653002,70.2267852 -38.6349001,44.1520504 -15.5769698,33.1710312 Z" id="path-1"></path>
        <mask id="mask-2" maskContentUnits="userSpaceOnUse" maskUnits="objectBoundingBox" x="0" y="0" width="108.487128" height="54.2482504" fill="white">
            <use xlink:href="#path-1"></use>
        </mask>
        <path d="M4.62415514,3.93706743 C10.220445,-2.54759499 21.4130248,-2.54759499 27.0093146,3.93706743 C32.6056045,10.4217298 27.0093146,29.8757171 27.0093146,29.8757171 L4.62415514,29.8757171 C4.62415514,29.8757171 -0.972134732,10.4217298 4.62415514,3.93706743 Z" id="path-3"></path>
        <mask id="mask-4" maskContentUnits="userSpaceOnUse" maskUnits="objectBoundingBox" x="0" y="0" width="27.3596394" height="30.8021465" fill="white">
            <use xlink:href="#path-3"></use>
        </mask>
        <path d="M-15.5769698,33.1710312 C7.48096044,22.1900121 68.7482854,32.0467617 68.7482854,32.0467617 C73.1149059,32.6676786 77.5647213,36.6294572 78.5515902,40.9515055 C78.5515902,40.9515055 86.2812976,66.1374011 76.6547512,77.0951077 C67.0282048,88.0528144 -7.645806,78.0623754 -7.645806,78.0623754 C-12.0260668,77.5281682 -17.4985203,74.0735951 -19.653002,70.2267852 C-19.653002,70.2267852 -38.6349001,44.1520504 -15.5769698,33.1710312 Z" id="path-5"></path>
        <mask id="mask-6" maskContentUnits="userSpaceOnUse" maskUnits="objectBoundingBox" x="0" y="0" width="108.487128" height="54.2482504" fill="white">
            <use xlink:href="#path-5"></use>
        </mask>
        <path d="M4.62415514,3.93706743 C10.220445,-2.54759499 21.4130248,-2.54759499 27.0093146,3.93706743 C32.6056045,10.4217298 27.0093146,29.8757171 27.0093146,29.8757171 L4.62415514,29.8757171 C4.62415514,29.8757171 -0.972134732,10.4217298 4.62415514,3.93706743 Z" id="path-7"></path>
        <mask id="mask-8" maskContentUnits="userSpaceOnUse" maskUnits="objectBoundingBox" x="0" y="0" width="27.3596394" height="30.8021465" fill="white">
            <use xlink:href="#path-7"></use>
        </mask>
        <path d="M9.28967367,5.87026301 C21.1876412,-0.932295222 69.4774454,-0.922044721 74.2930836,5.87026301 C79.1087219,12.6625707 78.5527395,168.798826 74.2930836,175.352851 C70.0334278,181.906876 15.2435464,185.202568 9.28967367,175.352851 C3.33580096,165.503134 -2.60829387,12.6728212 9.28967367,5.87026301 Z" id="path-9"></path>
        <mask id="mask-10" maskContentUnits="userSpaceOnUse" maskUnits="objectBoundingBox" x="0" y="0" width="75.2806401" height="180.792944" fill="white">
            <use xlink:href="#path-9"></use>
        </mask>
        <path d="M63.1224596,263.627942 C75.0204272,256.825384 123.310231,256.835634 128.12587,263.627942 C132.941508,270.42025 132.385525,426.556505 128.12587,433.11053 C123.866214,439.664555 69.0763324,442.960247 63.1224596,433.11053 C57.1685869,423.260813 51.2244921,270.4305 63.1224596,263.627942 Z" id="path-11"></path>
        <mask id="mask-12" maskContentUnits="userSpaceOnUse" maskUnits="objectBoundingBox" x="0" y="0" width="75.2806401" height="180.792944" fill="white">
            <use xlink:href="#path-11"></use>
        </mask>
        <path d="M240.068466,99.4996164 C232.542005,153.530232 241.318863,229.824558 248.228615,242.814944 C257.901885,261.000767 46.7804111,263.143216 51.7891471,245.743724 C56.3080316,230.045891 62.0145926,156.959748 48.7533193,101.9379 C26.5509657,113.48236 47.1210041,216.101714 47.1210041,216.101714 C47.5327549,218.262266 46.1409097,219.527463 44.0195018,218.92966 L14.1147251,210.50263 C11.9900618,209.90391 9.91338229,207.664153 9.49343319,205.49484 C9.49343319,205.49484 -23.0766084,50.9633889 37.6009326,42.6862497 C37.6740368,42.6833234 37.7470132,42.6805109 37.8198619,42.6778119 C74.9869039,34.2077515 176.773025,31.5093116 228.587121,37.5058951 C246.191405,37.7592309 263.397594,41.4419433 270.497003,60.3455371 C301.771314,143.619636 285.893331,190.772463 285.893331,190.772463 C285.352877,192.921095 283.289925,195.501098 281.357542,196.57257 L257.592915,209.749633 C255.66183,210.820385 254.235234,209.913281 254.409424,207.721951 C254.409424,207.721951 262.890375,114.305578 240.068466,99.4996164 Z" id="path-13"></path>
        <mask id="mask-14" maskContentUnits="userSpaceOnUse" maskUnits="objectBoundingBox" x="0" y="0" width="289.160648" height="223.418907" fill="white">
            <use xlink:href="#path-13"></use>
        </mask>
        <path d="M71.6217884,248.940183 C67.6879206,248.733883 117.990978,254.927505 118.328139,251.770757 C118.665301,248.614009 73.3967395,24.1619796 133.182272,23.740888 C167.41228,23.4997934 177.141959,137.425611 177.383647,244.229584 C177.402543,252.580237 245.569482,237.734944 247.476134,238.179924 C249.382786,238.624905 256.316067,257.702487 253.213293,261.318202 C250.110519,264.933916 206.074385,275.747963 134.422711,275.747963 C62.7710375,275.747963 43.4903758,268.186222 46.785314,268.601783 C50.0802522,269.017343 51.9759589,249.338848 53.385523,244.152749 C53.5390422,243.587918 74.9500611,249.114724 71.6217884,248.940183 Z" id="path-15"></path>
        <mask id="mask-16" maskContentUnits="userSpaceOnUse" maskUnits="objectBoundingBox" x="0" y="0" width="207.565728" height="252.007457" fill="white">
            <use xlink:href="#path-15"></use>
        </mask>
        <path d="M122.175124,22.7596095 C125.185294,19.9444406 121.432795,21.9444683 123.976703,21.5035946 C126.520612,21.062721 153.648792,4.17994955 161.3427,13.125653 C169.036609,22.0713564 154.508915,49.5816786 153.603486,52.839621 C152.698057,56.0975633 154.848304,53.6266881 154.848304,53.6266881 C154.848304,53.6266881 112.904245,83.2480685 107.128533,77.9368065 C101.352821,72.6255444 119.164955,25.5747785 122.175124,22.7596095 Z" id="path-17"></path>
        <mask id="mask-18" maskContentUnits="userSpaceOnUse" maskUnits="objectBoundingBox" x="0" y="0" width="57.5979517" height="68.0588786" fill="white">
            <use xlink:href="#path-17"></use>
        </mask>
        <path d="M21.296818,169.444577 C24.0356938,167.04648 33.2288223,126.571297 76.4638886,89.9300441 C112.786107,59.1473553 180.028651,38.2645601 219.897992,37.7443344 C264.727921,37.1593815 333.853429,64.3309295 368.547051,99.0738753 C401.434992,132.008573 401.006264,165.28244 404.018884,169.444577 C415.734865,185.630993 417.359077,289.315143 411.829538,306.129867 C409.13218,314.332238 310.560445,450.249456 217.203836,453.313287 C119.180943,456.530258 26.1072263,326.549349 21.296818,320.517793 C11.9049964,308.741807 10.6103031,178.801447 21.296818,169.444577 Z" id="path-19"></path>
        <mask id="mask-20" maskContentUnits="userSpaceOnUse" maskUnits="objectBoundingBox" x="0" y="0" width="401.123355" height="415.636954" fill="white">
            <use xlink:href="#path-19"></use>
        </mask>
        <path d="M89.3186358,50.3776953 C89.3186358,50.3776953 129.063537,0.875445561 213.964247,0.875445561 C298.864956,0.875445561 356.763973,50.3776953 356.763973,50.3776953 C356.763973,50.3776953 391.395514,92.172042 410.378957,139.621381 C431.315751,191.953144 436.000707,280.282514 417.196333,297.888944 C397.437126,316.389377 343.443833,163.759516 335.158629,158.69047 C326.796359,153.574273 307.108652,206.164187 208.081588,206.164187 C109.054524,206.164187 110.368807,151.210088 99.1201247,164.851407 C87.3778027,179.091365 33.2516406,320.347314 10.8851475,297.888944 C-12.1327225,274.776522 4.05341063,169.574479 34.2581325,113.686609 C53.6047616,77.8894937 89.3186358,50.3776953 89.3186358,50.3776953 Z" id="path-21"></path>
        <mask id="mask-22" maskContentUnits="userSpaceOnUse" maskUnits="objectBoundingBox" x="0" y="0" width="429" height="299.427738" fill="white">
            <use xlink:href="#path-21"></use>
        </mask>
        <path d="M10.7105825,33.1036326 C16.2962507,21.0033558 52.5446087,3.12307181e-15 90.0360598,0 C127.527511,0 172.452712,19.1541176 175.943449,39.4697158 C182.442778,77.2948931 179.332967,111.937002 170.481206,128.59488 C167.150129,134.863539 144.521502,173.467415 99.0523281,175.273664 C51.0710004,177.179706 37.2545384,165.62861 25.7317522,152.785997 C-17.0198639,105.137584 5.12491424,45.2039094 10.7105825,33.1036326 Z" id="path-23"></path>
        <mask id="mask-24" maskContentUnits="userSpaceOnUse" maskUnits="objectBoundingBox" x="0" y="0" width="179.407732" height="175.480683" fill="white">
            <use xlink:href="#path-23"></use>
        </mask>
        <path d="M144.749453,50.9286655 C144.749453,50.9286655 174.623599,40.7429324 205.160053,40.7429324 C235.696507,40.7429324 266.284372,50.9286655 266.284372,50.9286655 L266.284372,90.3983813 C266.284372,90.3983813 234.413497,68.7536985 204.358755,68.7536985 C174.304013,68.7536985 144.749453,90.3983813 144.749453,90.3983813 L144.749453,50.9286655 Z" id="path-25"></path>
        <mask id="mask-26" maskContentUnits="userSpaceOnUse" maskUnits="objectBoundingBox" x="0" y="0" width="121.534919" height="49.6554489" fill="white">
            <use xlink:href="#path-25"></use>
        </mask>
        <path d="M10.7105825,33.1036326 C16.2962507,21.0033558 52.5446087,3.12307181e-15 90.0360598,0 C127.527511,0 172.452712,19.1541176 175.943449,39.4697158 C182.442778,77.2948931 179.332967,111.937002 170.481206,128.59488 C167.150129,134.863539 144.521502,173.467415 99.0523281,175.273664 C51.0710004,177.179706 37.2545384,165.62861 25.7317522,152.785997 C-17.0198639,105.137584 5.12491424,45.2039094 10.7105825,33.1036326 Z" id="path-27"></path>
        <mask id="mask-28" maskContentUnits="userSpaceOnUse" maskUnits="objectBoundingBox" x="0" y="0" width="179.407732" height="175.480683" fill="white">
            <use xlink:href="#path-27"></use>
        </mask>
        <path d="M237.393689,33.1036326 C242.979357,21.0033558 279.227715,3.12307181e-15 316.719166,0 C354.210617,0 399.135819,19.1541176 402.626556,39.4697158 C409.125884,77.2948931 406.016073,111.937002 397.164312,128.59488 C393.833235,134.863539 371.204609,173.467415 325.735435,175.273664 C277.754107,177.179706 263.937645,165.62861 252.414859,152.785997 C209.663243,105.137584 231.808021,45.2039094 237.393689,33.1036326 Z" id="path-29"></path>
        <mask id="mask-30" maskContentUnits="userSpaceOnUse" maskUnits="objectBoundingBox" x="0" y="0" width="179.407732" height="175.480683" fill="white">
            <use xlink:href="#path-29"></use>
        </mask>
    </defs>
    <g id="Group-10" stroke="none" stroke-width="1" fill="none" fill-rule="evenodd" transform="translate(-6951.000000, -3684.000000)">
        <g id="Group-17" transform="translate(83.000000, 425.000000)">
            <g id="Group-16" transform="translate(89.765325, 448.624807) rotate(8.000000) translate(-89.765325, -448.624807) translate(62.265325, 393.624807)" stroke="#191919">
                <use id="Rectangle-9" mask="url(#mask-2)" stroke-width="16" fill="#EF0808" transform="translate(27.243564, 55.105148) rotate(-90.000000) translate(-27.243564, -55.105148) " xlink:href="#path-1"></use>
                <g id="Group-19" transform="translate(27.500000, 55.000000) rotate(-90.000000) translate(-27.500000, -55.000000) translate(11.500000, 40.500000)">
                    <use id="Rectangle-10" mask="url(#mask-4)" stroke-width="8" fill="#FEFEFE" transform="translate(15.816735, 14.474644) rotate(-91.000000) translate(-15.816735, -14.474644) " xlink:href="#path-3"></use>
                    <path d="M4.63561933,8.5971572 L22.4788624,18.0950353" id="Line" stroke-width="5" stroke-linecap="square" transform="translate(13.557241, 13.346096) rotate(-90.000000) translate(-13.557241, -13.346096) "></path>
                    <path d="M11.5467987,10.0325598 L30.4071589,20.0718449" id="Line" stroke-width="4" stroke-linecap="square" transform="translate(20.976979, 15.052202) rotate(-90.000000) translate(-20.976979, -15.052202) "></path>
                    <path d="M3.14561933,9.48850158 L20.9888624,18.9863797" id="Line" stroke-width="4" stroke-linecap="square" transform="translate(12.067241, 14.237441) scale(-1, 1) rotate(-90.000000) translate(-12.067241, -14.237441) "></path>
                    <path d="M12.7328253,9.3209502 L31.5931856,19.3602353" id="Line" stroke-width="4" stroke-linecap="square" transform="translate(22.163005, 14.340593) scale(-1, 1) rotate(-90.000000) translate(-22.163005, -14.340593) "></path>
                </g>
            </g>
            <g id="Group-16" transform="translate(190.217937, 444.636983) rotate(-9.000000) translate(-190.217937, -444.636983) translate(162.717937, 389.636983)" stroke="#191919">
                <use id="Rectangle-9" mask="url(#mask-6)" stroke-width="16" fill="#EF0808" transform="translate(27.243564, 55.105148) rotate(-90.000000) translate(-27.243564, -55.105148) " xlink:href="#path-5"></use>
                <g id="Group-19" transform="translate(27.500000, 55.000000) rotate(-90.000000) translate(-27.500000, -55.000000) translate(11.500000, 40.500000)">
                    <use id="Rectangle-10" mask="url(#mask-8)" stroke-width="8" fill="#FEFEFE" transform="translate(15.816735, 14.474644) rotate(-91.000000) translate(-15.816735, -14.474644) " xlink:href="#path-7"></use>
                    <path d="M4.63561933,8.5971572 L22.4788624,18.0950353" id="Line" stroke-width="5" stroke-linecap="square" transform="translate(13.557241, 13.346096) rotate(-90.000000) translate(-13.557241, -13.346096) "></path>
                    <path d="M11.5467987,10.0325598 L30.4071589,20.0718449" id="Line" stroke-width="4" stroke-linecap="square" transform="translate(20.976979, 15.052202) rotate(-90.000000) translate(-20.976979, -15.052202) "></path>
                    <path d="M3.14561933,9.48850158 L20.9888624,18.9863797" id="Line" stroke-width="4" stroke-linecap="square" transform="translate(12.067241, 14.237441) scale(-1, 1) rotate(-90.000000) translate(-12.067241, -14.237441) "></path>
                    <path d="M12.7328253,9.3209502 L31.5931856,19.3602353" id="Line" stroke-width="4" stroke-linecap="square" transform="translate(22.163005, 14.340593) scale(-1, 1) rotate(-90.000000) translate(-22.163005, -14.340593) "></path>
                </g>
            </g>
            <path d="M243.9875,68.6445672 C243.9875,68.6445672 244.501301,75.9500066 241.56302,80.1685627 C238.624739,84.3871189 232.8125,84.6887661 232.8125,84.6887661" id="Line" stroke="#979797" stroke-linecap="square"></path>
            <path d="M255.535,68.198895 C255.535,68.198895 256.048801,75.5043344 253.11052,79.7228906 C250.172239,83.9414467 244.36,84.2430939 244.36,84.2430939" id="Line" stroke="#979797" stroke-linecap="square" transform="translate(249.964748, 76.220994) scale(-1, 1) translate(-249.964748, -76.220994) "></path>
            <path d="M204.875,116.331492 L215.942008,126.593563" id="Line" stroke="#000000" stroke-linecap="square"></path>
            <path d="M198.915,113.657459 L210.727008,125.702219 L198.915,113.657459 Z" id="Line" stroke="#000000" stroke-linecap="square" transform="translate(204.821004, 119.679839) scale(-1, 1) translate(-204.821004, -119.679839) "></path>
            <g id="Group-18" transform="translate(150.235000, 257.163904)" stroke="#191919" stroke-width="16" fill="#0D103C">
                <use id="Rectangle-16" mask="url(#mask-10)" transform="translate(40.059186, 91.168659) scale(-1, 1) rotate(1.000000) translate(-40.059186, -91.168659) " xlink:href="#path-9"></use>
            </g>
            <use id="Rectangle-16" stroke="#191919" mask="url(#mask-12)" stroke-width="16" fill="#0D103C" transform="translate(93.891972, 348.926338) scale(-1, 1) rotate(1.000000) translate(-93.891972, -348.926338) " xlink:href="#path-11"></use>
            <use id="Combined-Shape" stroke="#191919" mask="url(#mask-14)" stroke-width="16" fill="#1521EE" xlink:href="#path-13"></use>
            <use id="Rectangle-8" stroke="#191919" mask="url(#mask-16)" stroke-width="16" fill="#C653ED" xlink:href="#path-15"></use>
            <use id="Rectangle-6" stroke="#191919" mask="url(#mask-18)" stroke-width="16" fill="#EFE8D4" transform="translate(134.783093, 44.544876) rotate(-45.000000) translate(-134.783093, -44.544876) " xlink:href="#path-17"></use>
            <ellipse id="Oval-5" stroke="#191919" stroke-width="8" fill="#EFE8D4" cx="276.770872" cy="222.181596" rx="20.5197295" ry="23.6752664"></ellipse>
            <ellipse id="Oval-5" stroke="#191919" stroke-width="8" fill="#EFE8D4" cx="26.0733064" cy="235.956296" rx="20.5197295" ry="23.6752664"></ellipse>
        </g>
        <use id="Rectangle-4" stroke="#191919" mask="url(#mask-20)" stroke-width="20" fill="#EFE8D4" xlink:href="#path-19"></use>
        <use id="Rectangle-3" stroke="#191919" mask="url(#mask-22)" stroke-width="20" fill="#C4BD7A" xlink:href="#path-21"></use>
        <g id="Group-7" transform="translate(13.482857, 141.506494)" stroke="#000000">
            <use id="Rectangle-8" mask="url(#mask-24)" stroke-width="28" fill="#EFE8D4" xlink:href="#path-23"></use>
            <use id="Rectangle-9" mask="url(#mask-26)" stroke-width="2" fill="#000000" xlink:href="#path-25"></use>
            <use id="Rectangle-8" mask="url(#mask-28)" stroke-width="28" fill="#EFE8D4" xlink:href="#path-27"></use>
            <use id="Rectangle-8" mask="url(#mask-30)" stroke-width="28" fill="#EFE8D4" transform="translate(316.386972, 87.740341) scale(-1, 1) translate(-316.386972, -87.740341) " xlink:href="#path-29"></use>
        </g>
        <path d="M214.782317,324.285714 C243.416835,324.285714 339.396275,396.551097 314.632285,420.584529 C289.868296,444.617962 107.902301,434.976166 99.7764241,419.895975 C91.6505471,404.815783 186.147799,324.285714 214.782317,324.285714 Z" id="Triangle" stroke="#191919" stroke-width="10" fill="#FEFEFE" transform="translate(208.978161, 379.720881) scale(1, -1) translate(-208.978161, -379.720881) "></path>
        <path d="M191.211429,274.758442 C191.211429,274.758442 204.621489,288.909091 212.048571,288.909091 C219.475654,288.909091 232.885714,274.758442 232.885714,274.758442" id="Line" stroke="#191919" stroke-width="4" stroke-linecap="square" transform="translate(212.048571, 281.833766) scale(1, -1) rotate(90.000000) translate(-212.048571, -281.833766) "></path>
        <g id="Group-2" transform="translate(36.000000, 172.000000)" stroke="#191919" stroke-width="10">
            <ellipse id="Oval" fill="#FEFEFE" cx="67.5728571" cy="58.7273031" rx="66.8014286" ry="45.2103592"></ellipse>
            <ellipse id="Oval-2" fill="#0B138D" cx="67.287381" cy="52.0519481" rx="43.6778571" ry="51.8857143"></ellipse>
            <ellipse id="Oval-3" fill="#FEFEFE" cx="73.5678571" cy="59.3341536" rx="16.2721429" ry="19.1157895"></ellipse>
        </g>
        <g id="Group-4" transform="translate(263.000000, 172.000000)" stroke="#191919" stroke-width="10">
            <ellipse id="Oval" fill="#FEFEFE" cx="67.33" cy="58.7273031" rx="66.8014286" ry="45.2103592"></ellipse>
            <ellipse id="Oval-2" fill="#0B138D" cx="67.0445238" cy="52.0519481" rx="43.6778571" ry="51.8857143"></ellipse>
            <ellipse id="Oval-3" fill="#FEFEFE" cx="73.325" cy="59.3341536" rx="16.2721429" ry="19.1157895"></ellipse>
        </g>
    </g>
</svg>