
<svg width="429px" height="938px" viewBox="-6515 -3692 429 938" version="1.1" xmlns="http://www.w3.org/2000/svg" xmlns:xlink="http://www.w3.org/1999/xlink">
    <!-- Generator: Sketch 42 (36781) - http://www.bohemiancoding.com/sketch -->
    <desc>Created with Sketch.</desc>
    <defs>
        <path d="M-15.5769698,33.1710312 C7.48096044,22.1900121 68.7482854,32.0467617 68.7482854,32.0467617 C73.1149059,32.6676786 77.5647213,36.6294572 78.5515902,40.9515055 C78.5515902,40.9515055 86.2812976,66.1374011 76.6547512,77.0951077 C67.0282048,88.0528144 -7.645806,78.0623754 -7.645806,78.0623754 C-12.0260668,77.5281682 -17.4985203,74.0735951 -19.653002,70.2267852 C-19.653002,70.2267852 -38.6349001,44.1520504 -15.5769698,33.1710312 Z" id="path-1"></path>
        <mask id="mask-2" maskContentUnits="userSpaceOnUse" maskUnits="objectBoundingBox" x="0" y="0" width="108.487128" height="54.2482504" fill="white">
            <use xlink:href="#path-1"></use>
        </mask>
        <path d="M4.62415514,3.93706743 C10.220445,-2.54759499 21.4130248,-2.54759499 27.0093146,3.93706743 C32.6056045,10.4217298 27.0093146,29.8757171 27.0093146,29.8757171 L4.62415514,29.8757171 C4.62415514,29.8757171 -0.972134732,10.4217298 4.62415514,3.93706743 Z" id="path-3"></path>
        <mask id="mask-4" maskContentUnits="userSpaceOnUse" maskUnits="objectBoundingBox" x="0" y="0" width="27.3596394" height="30.8021465" fill="white">
            <use xlink:href="#path-3"></use>
        </mask>
        <path d="M-15.5769698,33.1710312 C7.48096044,22.1900121 68.7482854,32.0467617 68.7482854,32.0467617 C73.1149059,32.6676786 77.5647213,36.6294572 78.5515902,40.9515055 C78.5515902,40.9515055 86.2812976,66.1374011 76.6547512,77.0951077 C67.0282048,88.0528144 -7.645806,78.0623754 -7.645806,78.0623754 C-12.0260668,77.5281682 -17.4985203,74.0735951 -19.653002,70.2267852 C-19.653002,70.2267852 -38.6349001,44.1520504 -15.5769698,33.1710312 Z" id="path-5"></path>
        <mask id="mask-6" maskContentUnits="userSpaceOnUse" maskUnits="objectBoundingBox" x="0" y="0" width="108.487128" height="54.2482504" fill="white">
            <use xlink:href="#path-5"></use>
        </mask>
        <path d="M4.62415514,3.93706743 C10.220445,-2.54759499 21.4130248,-2.54759499 27.0093146,3.93706743 C32.6056045,10.4217298 27.0093146,29.8757171 27.0093146,29.8757171 L4.62415514,29.8757171 C4.62415514,29.8757171 -0.972134732,10.4217298 4.62415514,3.93706743 Z" id="path-7"></path>
        <mask id="mask-8" maskContentUnits="userSpaceOnUse" maskUnits="objectBoundingBox" x="0" y="0" width="27.3596394" height="30.8021465" fill="white">
            <use xlink:href="#path-7"></use>
        </mask>
        <path d="M9.28967367,5.87026301 C21.1876412,-0.932295222 69.4774454,-0.922044721 74.2930836,5.87026301 C79.1087219,12.6625707 78.5527395,168.798826 74.2930836,175.352851 C70.0334278,181.906876 15.2435464,185.202568 9.28967367,175.352851 C3.33580096,165.503134 -2.60829387,12.6728212 9.28967367,5.87026301 Z" id="path-9"></path>
        <mask id="mask-10" maskContentUnits="userSpaceOnUse" maskUnits="objectBoundingBox" x="0" y="0" width="75.2806401" height="180.792944" fill="white">
            <use xlink:href="#path-9"></use>
        </mask>
        <path d="M55.1224596,345.701213 C67.0204272,338.898655 115.310231,338.908906 120.12587,345.701213 C124.941508,352.493521 124.385525,508.629777 120.12587,515.183802 C115.866214,521.737826 61.0763324,525.033519 55.1224596,515.183802 C49.1685869,505.334084 43.2244921,352.503771 55.1224596,345.701213 Z" id="path-11"></path>
        <mask id="mask-12" maskContentUnits="userSpaceOnUse" maskUnits="objectBoundingBox" x="0" y="0" width="75.2806401" height="180.792944" fill="white">
            <use xlink:href="#path-11"></use>
        </mask>
        <path d="M235.159854,113.927317 C185.812379,106.358699 73.6220219,109.119993 35.7750919,118.584309 C33.6613411,118.993624 31.6642333,119.592129 29.778097,120.365664 C27.0504184,121.350959 25.0847828,122.396078 24.002751,123.497808 C-18.3829011,152.711548 8.29860871,287.104684 8.29860871,287.104684 C8.69513293,289.281215 10.7498966,291.532133 12.8721781,292.139878 L42.7434302,300.693928 C44.8624599,301.300742 46.2725765,300.044089 45.8857509,297.885034 C45.8857509,297.885034 25.9573228,192.18438 47.9728097,179.675288 C61.224331,236.668467 55.5207659,312.36449 51.0041791,328.6239 C45.9975926,346.647275 257.028464,344.428006 247.359345,325.590105 C240.395167,312.022117 231.53354,231.786048 239.393626,175.745647 C247.548427,172.573088 255.350986,166.448863 264.11063,154.889714 C307.779568,97.2645658 281.120446,19.9216948 281.120446,19.9216948 C280.49341,17.8124374 278.383696,15.2198455 276.456873,14.134274 L252.760621,0.78381443 C250.835093,-0.301027501 249.390977,0.59319023 249.53799,2.78273504 C249.53799,2.78273504 256.801805,95.9954249 235.159841,113.927315 Z" id="path-13"></path>
        <mask id="mask-14" maskContentUnits="userSpaceOnUse" maskUnits="objectBoundingBox" x="0" y="0" width="289.160004" height="340.682854" fill="white">
            <use xlink:href="#path-13"></use>
        </mask>
        <path d="M69.1863344,330.980248 C65.2524665,330.773086 115.555524,336.992577 115.892685,333.822644 C116.229847,330.652711 70.9612855,105.26323 130.746818,104.84038 C164.976826,104.598278 174.706505,218.999921 174.948193,326.249974 C174.967089,334.635505 243.134028,319.728208 245.04068,320.175047 C246.947332,320.621886 253.880613,339.779149 250.777839,343.409965 C247.675065,347.040781 203.638931,357.899994 131.987257,357.899994 C60.3355834,357.899994 41.0549218,350.30667 44.34986,350.723966 C47.6447982,351.141262 49.5405049,331.380577 50.950069,326.172818 C51.1035881,325.605628 72.514607,331.155518 69.1863344,330.980248 Z" id="path-15"></path>
        <mask id="mask-16" maskContentUnits="userSpaceOnUse" maskUnits="objectBoundingBox" x="0" y="0" width="207.565728" height="253.059998" fill="white">
            <use xlink:href="#path-15"></use>
        </mask>
        <path d="M114.175124,103.850535 C117.185294,101.023738 113.432795,103.032026 115.976703,102.589332 C118.520612,102.146637 145.648792,85.1941312 153.3427,94.176785 C161.036609,103.159439 146.508915,130.783392 145.603486,134.054792 C144.698057,137.326191 146.848304,134.84511 146.848304,134.84511 C146.848304,134.84511 104.904245,164.588842 99.128533,159.255641 C93.352821,153.922441 111.164955,106.677332 114.175124,103.850535 Z" id="path-17"></path>
        <mask id="mask-18" maskContentUnits="userSpaceOnUse" maskUnits="objectBoundingBox" x="0" y="0" width="57.5979517" height="68.3399963" fill="white">
            <use xlink:href="#path-17"></use>
        </mask>
        <path d="M21.296818,169.444577 C24.0356938,167.04648 33.2288223,126.571297 76.4638886,89.9300441 C112.786107,59.1473553 180.028651,38.2645601 219.897992,37.7443344 C264.727921,37.1593815 333.853429,64.3309295 368.547051,99.0738753 C401.434992,132.008573 401.006264,165.28244 404.018884,169.444577 C415.734865,185.630993 417.359077,289.315143 411.829538,306.129867 C409.13218,314.332238 310.560445,450.249456 217.203836,453.313287 C119.180943,456.530258 26.1072263,326.549349 21.296818,320.517793 C11.9049964,308.741807 10.6103031,178.801447 21.296818,169.444577 Z" id="path-19"></path>
        <mask id="mask-20" maskContentUnits="userSpaceOnUse" maskUnits="objectBoundingBox" x="0" y="0" width="401.123355" height="415.636954" fill="white">
            <use xlink:href="#path-19"></use>
        </mask>
        <path d="M89.3186358,50.3776953 C89.3186358,50.3776953 129.063537,0.875445561 213.964247,0.875445561 C298.864956,0.875445561 356.763973,50.3776953 356.763973,50.3776953 C356.763973,50.3776953 391.395514,92.172042 410.378957,139.621381 C431.315751,191.953144 436.000707,280.282514 417.196333,297.888944 C397.437126,316.389377 343.443833,163.759516 335.158629,158.69047 C326.796359,153.574273 307.108652,206.164187 208.081588,206.164187 C109.054524,206.164187 110.368807,151.210088 99.1201247,164.851407 C87.3778027,179.091365 33.2516406,320.347314 10.8851475,297.888944 C-12.1327225,274.776522 4.05341063,169.574479 34.2581325,113.686609 C53.6047616,77.8894937 89.3186358,50.3776953 89.3186358,50.3776953 Z" id="path-21"></path>
        <mask id="mask-22" maskContentUnits="userSpaceOnUse" maskUnits="objectBoundingBox" x="0" y="0" width="429" height="299.427738" fill="white">
            <use xlink:href="#path-21"></use>
        </mask>
        <path d="M10.7105825,33.1036326 C16.2962507,21.0033558 52.5446087,3.12307181e-15 90.0360598,0 C127.527511,0 172.452712,19.1541176 175.943449,39.4697158 C182.442778,77.2948931 179.332967,111.937002 170.481206,128.59488 C167.150129,134.863539 144.521502,173.467415 99.0523281,175.273664 C51.0710004,177.179706 37.2545384,165.62861 25.7317522,152.785997 C-17.0198639,105.137584 5.12491424,45.2039094 10.7105825,33.1036326 Z" id="path-23"></path>
        <mask id="mask-24" maskContentUnits="userSpaceOnUse" maskUnits="objectBoundingBox" x="0" y="0" width="179.407732" height="175.480683" fill="white">
            <use xlink:href="#path-23"></use>
        </mask>
        <path d="M144.749453,50.9286655 C144.749453,50.9286655 174.623599,40.7429324 205.160053,40.7429324 C235.696507,40.7429324 266.284372,50.9286655 266.284372,50.9286655 L266.284372,90.3983813 C266.284372,90.3983813 234.413497,68.7536985 204.358755,68.7536985 C174.304013,68.7536985 144.749453,90.3983813 144.749453,90.3983813 L144.749453,50.9286655 Z" id="path-25"></path>
        <mask id="mask-26" maskContentUnits="userSpaceOnUse" maskUnits="objectBoundingBox" x="0" y="0" width="121.534919" height="49.6554489" fill="white">
            <use xlink:href="#path-25"></use>
        </mask>
        <path d="M10.7105825,33.1036326 C16.2962507,21.0033558 52.5446087,3.12307181e-15 90.0360598,0 C127.527511,0 172.452712,19.1541176 175.943449,39.4697158 C182.442778,77.2948931 179.332967,111.937002 170.481206,128.59488 C167.150129,134.863539 144.521502,173.467415 99.0523281,175.273664 C51.0710004,177.179706 37.2545384,165.62861 25.7317522,152.785997 C-17.0198639,105.137584 5.12491424,45.2039094 10.7105825,33.1036326 Z" id="path-27"></path>
        <mask id="mask-28" maskContentUnits="userSpaceOnUse" maskUnits="objectBoundingBox" x="0" y="0" width="179.407732" height="175.480683" fill="white">
            <use xlink:href="#path-27"></use>
        </mask>
        <path d="M237.393689,33.1036326 C242.979357,21.0033558 279.227715,3.12307181e-15 316.719166,0 C354.210617,0 399.135819,19.1541176 402.626556,39.4697158 C409.125884,77.2948931 406.016073,111.937002 397.164312,128.59488 C393.833235,134.863539 371.204609,173.467415 325.735435,175.273664 C277.754107,177.179706 263.937645,165.62861 252.414859,152.785997 C209.663243,105.137584 231.808021,45.2039094 237.393689,33.1036326 Z" id="path-29"></path>
        <mask id="mask-30" maskContentUnits="userSpaceOnUse" maskUnits="objectBoundingBox" x="0" y="0" width="179.407732" height="175.480683" fill="white">
            <use xlink:href="#path-29"></use>
        </mask>
    </defs>
    <g id="Group-24" stroke="none" stroke-width="1" fill="none" fill-rule="evenodd" transform="translate(-6515.000000, -3692.000000)">
        <g id="Group-21" transform="translate(98.000000, 349.000000)" stroke="#191919">
            <g id="Group-16" transform="translate(81.886892, 530.622082) rotate(8.000000) translate(-81.886892, -530.622082) translate(54.386892, 475.622082)">
                <use id="Rectangle-9" mask="url(#mask-2)" stroke-width="16" fill="#EF0808" transform="translate(27.243564, 55.105148) rotate(-90.000000) translate(-27.243564, -55.105148) " xlink:href="#path-1"></use>
                <g id="Group-19" transform="translate(27.500000, 55.000000) rotate(-90.000000) translate(-27.500000, -55.000000) translate(11.500000, 40.500000)">
                    <use id="Rectangle-10" mask="url(#mask-4)" stroke-width="8" fill="#FEFEFE" transform="translate(15.816735, 14.474644) rotate(-91.000000) translate(-15.816735, -14.474644) " xlink:href="#path-3"></use>
                    <path d="M4.63561933,8.5971572 L22.4788624,18.0950353" id="Line" stroke-width="5" stroke-linecap="square" transform="translate(13.557241, 13.346096) rotate(-90.000000) translate(-13.557241, -13.346096) "></path>
                    <path d="M11.5467987,10.0325598 L30.4071589,20.0718449" id="Line" stroke-width="4" stroke-linecap="square" transform="translate(20.976979, 15.052202) rotate(-90.000000) translate(-20.976979, -15.052202) "></path>
                    <path d="M3.14561933,9.48850158 L20.9888624,18.9863797" id="Line" stroke-width="4" stroke-linecap="square" transform="translate(12.067241, 14.237441) scale(-1, 1) rotate(-90.000000) translate(-12.067241, -14.237441) "></path>
                    <path d="M12.7328253,9.3209502 L31.5931856,19.3602353" id="Line" stroke-width="4" stroke-linecap="square" transform="translate(22.163005, 14.340593) scale(-1, 1) rotate(-90.000000) translate(-22.163005, -14.340593) "></path>
                </g>
            </g>
            <g id="Group-16" transform="translate(182.765325, 526.634816) rotate(-9.000000) translate(-182.765325, -526.634816) translate(155.265325, 471.634816)">
                <use id="Rectangle-9" mask="url(#mask-6)" stroke-width="16" fill="#EF0808" transform="translate(27.243564, 55.105148) rotate(-90.000000) translate(-27.243564, -55.105148) " xlink:href="#path-5"></use>
                <g id="Group-19" transform="translate(27.500000, 55.000000) rotate(-90.000000) translate(-27.500000, -55.000000) translate(11.500000, 40.500000)">
                    <use id="Rectangle-10" mask="url(#mask-8)" stroke-width="8" fill="#FEFEFE" transform="translate(15.816735, 14.474644) rotate(-91.000000) translate(-15.816735, -14.474644) " xlink:href="#path-7"></use>
                    <path d="M4.63561933,8.5971572 L22.4788624,18.0950353" id="Line" stroke-width="5" stroke-linecap="square" transform="translate(13.557241, 13.346096) rotate(-90.000000) translate(-13.557241, -13.346096) "></path>
                    <path d="M11.5467987,10.0325598 L30.4071589,20.0718449" id="Line" stroke-width="4" stroke-linecap="square" transform="translate(20.976979, 15.052202) rotate(-90.000000) translate(-20.976979, -15.052202) "></path>
                    <path d="M3.14561933,9.48850158 L20.9888624,18.9863797" id="Line" stroke-width="4" stroke-linecap="square" transform="translate(12.067241, 14.237441) scale(-1, 1) rotate(-90.000000) translate(-12.067241, -14.237441) "></path>
                    <path d="M12.7328253,9.3209502 L31.5931856,19.3602353" id="Line" stroke-width="4" stroke-linecap="square" transform="translate(22.163005, 14.340593) scale(-1, 1) rotate(-90.000000) translate(-22.163005, -14.340593) "></path>
                </g>
            </g>
            <g id="Group-18" transform="translate(142.235000, 339.230011)" stroke-width="16" fill="#0D103C">
                <use id="Rectangle-16" mask="url(#mask-10)" transform="translate(40.059186, 91.168659) scale(-1, 1) rotate(1.000000) translate(-40.059186, -91.168659) " xlink:href="#path-9"></use>
            </g>
            <use id="Rectangle-16" mask="url(#mask-12)" stroke-width="16" fill="#0D103C" transform="translate(85.891972, 430.999610) scale(-1, 1) rotate(1.000000) translate(-85.891972, -430.999610) " xlink:href="#path-11"></use>
            <use id="Combined-Shape" mask="url(#mask-14)" stroke-width="16" fill="#1521EE" xlink:href="#path-13"></use>
            <use id="Rectangle-8" mask="url(#mask-16)" stroke-width="16" fill="#C653ED" xlink:href="#path-15"></use>
            <use id="Rectangle-6" mask="url(#mask-18)" stroke-width="16" fill="#EFE8D4" transform="translate(126.783093, 125.725785) rotate(-45.000000) translate(-126.783093, -125.725785) " xlink:href="#path-17"></use>
            <ellipse id="Oval-5" stroke-width="8" fill="#EFE8D4" cx="20.5197295" cy="317.935003" rx="20.5197295" ry="23.7749996"></ellipse>
        </g>
        <g id="Group-9">
            <use id="Rectangle-4" stroke="#191919" mask="url(#mask-20)" stroke-width="20" fill="#EFE8D4" xlink:href="#path-19"></use>
            <use id="Rectangle-3" stroke="#191919" mask="url(#mask-22)" stroke-width="20" fill="#C4BD7A" xlink:href="#path-21"></use>
            <g id="Group-7" transform="translate(13.482857, 139.148052)" stroke="#000000">
                <use id="Rectangle-8" mask="url(#mask-24)" stroke-width="28" fill="#EFE8D4" xlink:href="#path-23"></use>
                <use id="Rectangle-9" mask="url(#mask-26)" stroke-width="2" fill="#000000" xlink:href="#path-25"></use>
                <use id="Rectangle-8" mask="url(#mask-28)" stroke-width="28" fill="#EFE8D4" xlink:href="#path-27"></use>
                <use id="Rectangle-8" mask="url(#mask-30)" stroke-width="28" fill="#EFE8D4" transform="translate(316.386972, 87.740341) scale(-1, 1) translate(-316.386972, -87.740341) " xlink:href="#path-29"></use>
            </g>
            <path d="M219.685174,321.927273 C248.319692,321.927273 344.299132,394.192655 319.535142,418.226088 C294.771153,442.25952 112.805158,432.617724 104.679281,417.537533 C96.5534042,402.457342 191.050656,321.927273 219.685174,321.927273 Z" id="Triangle" stroke="#191919" stroke-width="10" fill="#FEFEFE" transform="translate(213.881018, 377.362440) scale(1, -1) translate(-213.881018, -377.362440) "></path>
            <path d="M63.7371429,214.618182 C63.7371429,214.618182 89.3740225,240.030389 103.572857,240.030389 C117.771692,240.030389 143.408571,214.618182 143.408571,214.618182" id="Line" stroke="#191919" stroke-width="8" stroke-linecap="square" transform="translate(103.572857, 227.324285) scale(1, -1) translate(-103.572857, -227.324285) "></path>
            <path d="M279.462857,218.155844 C279.462857,218.155844 305.099737,243.568051 319.298571,243.568051 C333.497406,243.568051 359.134286,218.155844 359.134286,218.155844" id="Line" stroke="#191919" stroke-width="8" stroke-linecap="square" transform="translate(319.298571, 230.861948) scale(1, -1) translate(-319.298571, -230.861948) "></path>
            <path d="M183.857143,279.475325 C183.857143,279.475325 197.267203,293.625974 204.694286,293.625974 C212.121368,293.625974 225.531429,279.475325 225.531429,279.475325" id="Line" stroke="#191919" stroke-width="4" stroke-linecap="square" transform="translate(204.694286, 286.550649) scale(1, -1) rotate(90.000000) translate(-204.694286, -286.550649) "></path>
        </g>
        <ellipse id="Oval-5" stroke="#191919" stroke-width="8" fill="#EFE8D4" cx="370.51973" cy="354.775" rx="20.5197295" ry="23.7749996"></ellipse>
    </g>
</svg>