
<svg width="429px" height="935px" viewBox="-5615 -3692 429 935" version="1.1" xmlns="http://www.w3.org/2000/svg" xmlns:xlink="http://www.w3.org/1999/xlink">
    <!-- Generator: Sketch 42 (36781) - http://www.bohemiancoding.com/sketch -->
    <desc>Created with Sketch.</desc>
    <defs>
        <path d="M-15.5769698,33.1710312 C7.48096044,22.1900121 68.7482854,32.0467617 68.7482854,32.0467617 C73.1149059,32.6676786 77.5647213,36.6294572 78.5515902,40.9515055 C78.5515902,40.9515055 86.2812976,66.1374011 76.6547512,77.0951077 C67.0282048,88.0528144 -7.645806,78.0623754 -7.645806,78.0623754 C-12.0260668,77.5281682 -17.4985203,74.0735951 -19.653002,70.2267852 C-19.653002,70.2267852 -38.6349001,44.1520504 -15.5769698,33.1710312 Z" id="path-1"></path>
        <mask id="mask-2" maskContentUnits="userSpaceOnUse" maskUnits="objectBoundingBox" x="0" y="0" width="108.487128" height="54.2482504" fill="white">
            <use xlink:href="#path-1"></use>
        </mask>
        <path d="M4.62415514,3.93706743 C10.220445,-2.54759499 21.4130248,-2.54759499 27.0093146,3.93706743 C32.6056045,10.4217298 27.0093146,29.8757171 27.0093146,29.8757171 L4.62415514,29.8757171 C4.62415514,29.8757171 -0.972134732,10.4217298 4.62415514,3.93706743 Z" id="path-3"></path>
        <mask id="mask-4" maskContentUnits="userSpaceOnUse" maskUnits="objectBoundingBox" x="0" y="0" width="27.3596394" height="30.8021465" fill="white">
            <use xlink:href="#path-3"></use>
        </mask>
        <path d="M-15.5769698,33.1710312 C7.48096044,22.1900121 68.7482854,32.0467617 68.7482854,32.0467617 C73.1149059,32.6676786 77.5647213,36.6294572 78.5515902,40.9515055 C78.5515902,40.9515055 86.2812976,66.1374011 76.6547512,77.0951077 C67.0282048,88.0528144 -7.645806,78.0623754 -7.645806,78.0623754 C-12.0260668,77.5281682 -17.4985203,74.0735951 -19.653002,70.2267852 C-19.653002,70.2267852 -38.6349001,44.1520504 -15.5769698,33.1710312 Z" id="path-5"></path>
        <mask id="mask-6" maskContentUnits="userSpaceOnUse" maskUnits="objectBoundingBox" x="0" y="0" width="108.487128" height="54.2482504" fill="white">
            <use xlink:href="#path-5"></use>
        </mask>
        <path d="M4.62415514,3.93706743 C10.220445,-2.54759499 21.4130248,-2.54759499 27.0093146,3.93706743 C32.6056045,10.4217298 27.0093146,29.8757171 27.0093146,29.8757171 L4.62415514,29.8757171 C4.62415514,29.8757171 -0.972134732,10.4217298 4.62415514,3.93706743 Z" id="path-7"></path>
        <mask id="mask-8" maskContentUnits="userSpaceOnUse" maskUnits="objectBoundingBox" x="0" y="0" width="27.3596394" height="30.8021465" fill="white">
            <use xlink:href="#path-7"></use>
        </mask>
        <path d="M9.28967367,5.87026301 C21.1876412,-0.932295222 69.4774454,-0.922044721 74.2930836,5.87026301 C79.1087219,12.6625707 78.5527395,168.798826 74.2930836,175.352851 C70.0334278,181.906876 15.2435464,185.202568 9.28967367,175.352851 C3.33580096,165.503134 -2.60829387,12.6728212 9.28967367,5.87026301 Z" id="path-9"></path>
        <mask id="mask-10" maskContentUnits="userSpaceOnUse" maskUnits="objectBoundingBox" x="0" y="0" width="75.2806401" height="180.792944" fill="white">
            <use xlink:href="#path-9"></use>
        </mask>
        <path d="M147.12246,691.627942 C159.020427,684.825384 207.310231,684.835634 212.12587,691.627942 C216.941508,698.42025 216.385525,854.556505 212.12587,861.11053 C207.866214,867.664555 153.076332,870.960247 147.12246,861.11053 C141.168587,851.260813 135.224492,698.4305 147.12246,691.627942 Z" id="path-11"></path>
        <mask id="mask-12" maskContentUnits="userSpaceOnUse" maskUnits="objectBoundingBox" x="0" y="0" width="75.2806401" height="180.792944" fill="white">
            <use xlink:href="#path-11"></use>
        </mask>
        <path d="M324.068466,527.499616 C316.542005,581.530232 325.318863,657.824558 332.228615,670.814944 C341.901885,689.000767 130.780411,691.143216 135.789147,673.743724 C140.308032,658.045891 146.014593,584.959748 132.753319,529.9379 C110.550966,541.48236 131.121004,644.101714 131.121004,644.101714 C131.532755,646.262266 130.14091,647.527463 128.019502,646.92966 L98.1147251,638.50263 C95.9900618,637.90391 93.9133823,635.664153 93.4934332,633.49484 C93.4934332,633.49484 60.9233916,478.963389 121.600933,470.68625 C121.674037,470.683323 121.747013,470.680511 121.819862,470.677812 C158.986904,462.207751 260.773025,459.509312 312.587121,465.505895 C330.191405,465.759231 347.397594,469.441943 354.497003,488.345537 C385.771314,571.619636 369.893331,618.772463 369.893331,618.772463 C369.352877,620.921095 367.289925,623.501098 365.357542,624.57257 L341.592915,637.749633 C339.66183,638.820385 338.235234,637.913281 338.409424,635.721951 C338.409424,635.721951 346.890375,542.305578 324.068466,527.499616 Z" id="path-13"></path>
        <mask id="mask-14" maskContentUnits="userSpaceOnUse" maskUnits="objectBoundingBox" x="0" y="0" width="289.160648" height="223.418907" fill="white">
            <use xlink:href="#path-13"></use>
        </mask>
        <path d="M155.621788,676.940183 C151.687921,676.733883 201.990978,682.927505 202.328139,679.770757 C202.665301,676.614009 157.39674,452.16198 217.182272,451.740888 C251.41228,451.499793 261.141959,565.425611 261.383647,672.229584 C261.402543,680.580237 329.569482,665.734944 331.476134,666.179924 C333.382786,666.624905 340.316067,685.702487 337.213293,689.318202 C334.110519,692.933916 290.074385,703.747963 218.422711,703.747963 C146.771037,703.747963 127.490376,696.186222 130.785314,696.601783 C134.080252,697.017343 135.975959,677.338848 137.385523,672.152749 C137.539042,671.587918 158.950061,677.114724 155.621788,676.940183 Z" id="path-15"></path>
        <mask id="mask-16" maskContentUnits="userSpaceOnUse" maskUnits="objectBoundingBox" x="0" y="0" width="207.565728" height="252.007457" fill="white">
            <use xlink:href="#path-15"></use>
        </mask>
        <path d="M206.175124,450.75961 C209.185294,447.944441 205.432795,449.944468 207.976703,449.503595 C210.520612,449.062721 237.648792,432.17995 245.3427,441.125653 C253.036609,450.071356 238.508915,477.581679 237.603486,480.839621 C236.698057,484.097563 238.848304,481.626688 238.848304,481.626688 C238.848304,481.626688 196.904245,511.248068 191.128533,505.936806 C185.352821,500.625544 203.164955,453.574778 206.175124,450.75961 Z" id="path-17"></path>
        <mask id="mask-18" maskContentUnits="userSpaceOnUse" maskUnits="objectBoundingBox" x="0" y="0" width="57.5979517" height="68.0588786" fill="white">
            <use xlink:href="#path-17"></use>
        </mask>
        <path d="M21.296818,169.444577 C24.0356938,167.04648 33.2288223,126.571297 76.4638886,89.9300441 C112.786107,59.1473553 180.028651,38.2645601 219.897992,37.7443344 C264.727921,37.1593815 333.853429,64.3309295 368.547051,99.0738753 C401.434992,132.008573 401.006264,165.28244 404.018884,169.444577 C415.734865,185.630993 417.359077,289.315143 411.829538,306.129867 C409.13218,314.332238 310.560445,450.249456 217.203836,453.313287 C119.180943,456.530258 26.1072263,326.549349 21.296818,320.517793 C11.9049964,308.741807 10.6103031,178.801447 21.296818,169.444577 Z" id="path-19"></path>
        <mask id="mask-20" maskContentUnits="userSpaceOnUse" maskUnits="objectBoundingBox" x="0" y="0" width="401.123355" height="415.636954" fill="white">
            <use xlink:href="#path-19"></use>
        </mask>
        <path d="M89.3186358,50.3776953 C89.3186358,50.3776953 129.063537,0.875445561 213.964247,0.875445561 C298.864956,0.875445561 356.763973,50.3776953 356.763973,50.3776953 C356.763973,50.3776953 391.395514,92.172042 410.378957,139.621381 C431.315751,191.953144 436.000707,280.282514 417.196333,297.888944 C397.437126,316.389377 343.443833,163.759516 335.158629,158.69047 C326.796359,153.574273 307.108652,206.164187 208.081588,206.164187 C109.054524,206.164187 110.368807,151.210088 99.1201247,164.851407 C87.3778027,179.091365 33.2516406,320.347314 10.8851475,297.888944 C-12.1327225,274.776522 4.05341063,169.574479 34.2581325,113.686609 C53.6047616,77.8894937 89.3186358,50.3776953 89.3186358,50.3776953 Z" id="path-21"></path>
        <mask id="mask-22" maskContentUnits="userSpaceOnUse" maskUnits="objectBoundingBox" x="0" y="0" width="429" height="299.427738" fill="white">
            <use xlink:href="#path-21"></use>
        </mask>
        <path d="M10.7105825,33.1036326 C16.2962507,21.0033558 52.5446087,3.12307181e-15 90.0360598,0 C127.527511,0 172.452712,19.1541176 175.943449,39.4697158 C182.442778,77.2948931 179.332967,111.937002 170.481206,128.59488 C167.150129,134.863539 144.521502,173.467415 99.0523281,175.273664 C51.0710004,177.179706 37.2545384,165.62861 25.7317522,152.785997 C-17.0198639,105.137584 5.12491424,45.2039094 10.7105825,33.1036326 Z" id="path-23"></path>
        <mask id="mask-24" maskContentUnits="userSpaceOnUse" maskUnits="objectBoundingBox" x="0" y="0" width="179.407732" height="175.480683" fill="white">
            <use xlink:href="#path-23"></use>
        </mask>
        <path d="M144.749453,50.9286655 C144.749453,50.9286655 174.623599,40.7429324 205.160053,40.7429324 C235.696507,40.7429324 266.284372,50.9286655 266.284372,50.9286655 L266.284372,90.3983813 C266.284372,90.3983813 234.413497,68.7536985 204.358755,68.7536985 C174.304013,68.7536985 144.749453,90.3983813 144.749453,90.3983813 L144.749453,50.9286655 Z" id="path-25"></path>
        <mask id="mask-26" maskContentUnits="userSpaceOnUse" maskUnits="objectBoundingBox" x="0" y="0" width="121.534919" height="49.6554489" fill="white">
            <use xlink:href="#path-25"></use>
        </mask>
        <path d="M10.7105825,33.1036326 C16.2962507,21.0033558 52.5446087,3.12307181e-15 90.0360598,0 C127.527511,0 172.452712,19.1541176 175.943449,39.4697158 C182.442778,77.2948931 179.332967,111.937002 170.481206,128.59488 C167.150129,134.863539 144.521502,173.467415 99.0523281,175.273664 C51.0710004,177.179706 37.2545384,165.62861 25.7317522,152.785997 C-17.0198639,105.137584 5.12491424,45.2039094 10.7105825,33.1036326 Z" id="path-27"></path>
        <mask id="mask-28" maskContentUnits="userSpaceOnUse" maskUnits="objectBoundingBox" x="0" y="0" width="179.407732" height="175.480683" fill="white">
            <use xlink:href="#path-27"></use>
        </mask>
        <path d="M237.393689,33.1036326 C242.979357,21.0033558 279.227715,3.12307181e-15 316.719166,0 C354.210617,0 399.135819,19.1541176 402.626556,39.4697158 C409.125884,77.2948931 406.016073,111.937002 397.164312,128.59488 C393.833235,134.863539 371.204609,173.467415 325.735435,175.273664 C277.754107,177.179706 263.937645,165.62861 252.414859,152.785997 C209.663243,105.137584 231.808021,45.2039094 237.393689,33.1036326 Z" id="path-29"></path>
        <mask id="mask-30" maskContentUnits="userSpaceOnUse" maskUnits="objectBoundingBox" x="0" y="0" width="179.407732" height="175.480683" fill="white">
            <use xlink:href="#path-29"></use>
        </mask>
    </defs>
    <g id="Group-20" stroke="none" stroke-width="1" fill="none" fill-rule="evenodd" transform="translate(-5615.000000, -3692.000000)">
        <g id="Group-16" transform="translate(173.886892, 876.622082) rotate(8.000000) translate(-173.886892, -876.622082) translate(146.386892, 821.622082)" stroke="#191919">
            <use id="Rectangle-9" mask="url(#mask-2)" stroke-width="16" fill="#EF0808" transform="translate(27.243564, 55.105148) rotate(-90.000000) translate(-27.243564, -55.105148) " xlink:href="#path-1"></use>
            <g id="Group-19" transform="translate(27.500000, 55.000000) rotate(-90.000000) translate(-27.500000, -55.000000) translate(11.500000, 40.500000)">
                <use id="Rectangle-10" mask="url(#mask-4)" stroke-width="8" fill="#FEFEFE" transform="translate(15.816735, 14.474644) rotate(-91.000000) translate(-15.816735, -14.474644) " xlink:href="#path-3"></use>
                <path d="M4.63561933,8.5971572 L22.4788624,18.0950353" id="Line" stroke-width="5" stroke-linecap="square" transform="translate(13.557241, 13.346096) rotate(-90.000000) translate(-13.557241, -13.346096) "></path>
                <path d="M11.5467987,10.0325598 L30.4071589,20.0718449" id="Line" stroke-width="4" stroke-linecap="square" transform="translate(20.976979, 15.052202) rotate(-90.000000) translate(-20.976979, -15.052202) "></path>
                <path d="M3.14561933,9.48850158 L20.9888624,18.9863797" id="Line" stroke-width="4" stroke-linecap="square" transform="translate(12.067241, 14.237441) scale(-1, 1) rotate(-90.000000) translate(-12.067241, -14.237441) "></path>
                <path d="M12.7328253,9.3209502 L31.5931856,19.3602353" id="Line" stroke-width="4" stroke-linecap="square" transform="translate(22.163005, 14.340593) scale(-1, 1) rotate(-90.000000) translate(-22.163005, -14.340593) "></path>
            </g>
        </g>
        <g id="Group-16" transform="translate(274.765325, 872.634816) rotate(-9.000000) translate(-274.765325, -872.634816) translate(247.265325, 817.634816)" stroke="#191919">
            <use id="Rectangle-9" mask="url(#mask-6)" stroke-width="16" fill="#EF0808" transform="translate(27.243564, 55.105148) rotate(-90.000000) translate(-27.243564, -55.105148) " xlink:href="#path-5"></use>
            <g id="Group-19" transform="translate(27.500000, 55.000000) rotate(-90.000000) translate(-27.500000, -55.000000) translate(11.500000, 40.500000)">
                <use id="Rectangle-10" mask="url(#mask-8)" stroke-width="8" fill="#FEFEFE" transform="translate(15.816735, 14.474644) rotate(-91.000000) translate(-15.816735, -14.474644) " xlink:href="#path-7"></use>
                <path d="M4.63561933,8.5971572 L22.4788624,18.0950353" id="Line" stroke-width="5" stroke-linecap="square" transform="translate(13.557241, 13.346096) rotate(-90.000000) translate(-13.557241, -13.346096) "></path>
                <path d="M11.5467987,10.0325598 L30.4071589,20.0718449" id="Line" stroke-width="4" stroke-linecap="square" transform="translate(20.976979, 15.052202) rotate(-90.000000) translate(-20.976979, -15.052202) "></path>
                <path d="M3.14561933,9.48850158 L20.9888624,18.9863797" id="Line" stroke-width="4" stroke-linecap="square" transform="translate(12.067241, 14.237441) scale(-1, 1) rotate(-90.000000) translate(-12.067241, -14.237441) "></path>
                <path d="M12.7328253,9.3209502 L31.5931856,19.3602353" id="Line" stroke-width="4" stroke-linecap="square" transform="translate(22.163005, 14.340593) scale(-1, 1) rotate(-90.000000) translate(-22.163005, -14.340593) "></path>
            </g>
        </g>
        <path d="M327.9875,496.644567 C327.9875,496.644567 328.501301,503.950007 325.56302,508.168563 C322.624739,512.387119 316.8125,512.688766 316.8125,512.688766" id="Line" stroke="#979797" stroke-linecap="square"></path>
        <path d="M339.535,496.198895 C339.535,496.198895 340.048801,503.504334 337.11052,507.722891 C334.172239,511.941447 328.36,512.243094 328.36,512.243094" id="Line" stroke="#979797" stroke-linecap="square" transform="translate(333.964748, 504.220994) scale(-1, 1) translate(-333.964748, -504.220994) "></path>
        <path d="M288.875,544.331492 L299.942008,554.593563" id="Line" stroke="#000000" stroke-linecap="square"></path>
        <path d="M282.915,541.657459 L294.727008,553.702219 L282.915,541.657459 Z" id="Line" stroke="#000000" stroke-linecap="square" transform="translate(288.821004, 547.679839) scale(-1, 1) translate(-288.821004, -547.679839) "></path>
        <g id="Group-18" transform="translate(234.235000, 685.163904)" stroke="#191919" stroke-width="16" fill="#0D103C">
            <use id="Rectangle-16" mask="url(#mask-10)" transform="translate(40.059186, 91.168659) scale(-1, 1) rotate(1.000000) translate(-40.059186, -91.168659) " xlink:href="#path-9"></use>
        </g>
        <use id="Rectangle-16" stroke="#191919" mask="url(#mask-12)" stroke-width="16" fill="#0D103C" transform="translate(177.891972, 776.926338) scale(-1, 1) rotate(1.000000) translate(-177.891972, -776.926338) " xlink:href="#path-11"></use>
        <use id="Combined-Shape" stroke="#191919" mask="url(#mask-14)" stroke-width="16" fill="#1521EE" xlink:href="#path-13"></use>
        <use id="Rectangle-8" stroke="#191919" mask="url(#mask-16)" stroke-width="16" fill="#C653ED" xlink:href="#path-15"></use>
        <use id="Rectangle-6" stroke="#191919" mask="url(#mask-18)" stroke-width="16" fill="#EFE8D4" transform="translate(218.783093, 472.544876) rotate(-45.000000) translate(-218.783093, -472.544876) " xlink:href="#path-17"></use>
        <ellipse id="Oval-5" stroke="#191919" stroke-width="8" fill="#EFE8D4" cx="360.770872" cy="650.181596" rx="20.5197295" ry="23.6752664"></ellipse>
        <ellipse id="Oval-5" stroke="#191919" stroke-width="8" fill="#EFE8D4" cx="110.073306" cy="663.956296" rx="20.5197295" ry="23.6752664"></ellipse>
        <g id="Group-11">
            <use id="Rectangle-4" stroke="#191919" mask="url(#mask-20)" stroke-width="20" fill="#EFE8D4" xlink:href="#path-19"></use>
            <use id="Rectangle-3" stroke="#191919" mask="url(#mask-22)" stroke-width="20" fill="#C4BD7A" xlink:href="#path-21"></use>
            <g id="Group-7" transform="translate(13.482857, 136.789610)" stroke="#000000">
                <use id="Rectangle-8" mask="url(#mask-24)" stroke-width="28" fill="#EFE8D4" xlink:href="#path-23"></use>
                <use id="Rectangle-9" mask="url(#mask-26)" stroke-width="2" fill="#000000" xlink:href="#path-25"></use>
                <use id="Rectangle-8" mask="url(#mask-28)" stroke-width="28" fill="#EFE8D4" xlink:href="#path-27"></use>
                <use id="Rectangle-8" mask="url(#mask-30)" stroke-width="28" fill="#EFE8D4" transform="translate(316.386972, 87.740341) scale(-1, 1) translate(-316.386972, -87.740341) " xlink:href="#path-29"></use>
            </g>
            <path d="M63.7371429,214.618182 C63.7371429,214.618182 89.3740225,240.030389 103.572857,240.030389 C117.771692,240.030389 143.408571,214.618182 143.408571,214.618182" id="Line" stroke="#191919" stroke-width="10" stroke-linecap="square" transform="translate(103.572857, 227.324285) scale(1, -1) translate(-103.572857, -227.324285) "></path>
            <path d="M279.462857,218.155844 C279.462857,218.155844 305.099737,243.568051 319.298571,243.568051 C333.497406,243.568051 359.134286,218.155844 359.134286,218.155844" id="Line" stroke="#191919" stroke-width="10" stroke-linecap="square" transform="translate(319.298571, 230.861948) scale(1, -1) translate(-319.298571, -230.861948) "></path>
            <path d="M183.857143,279.475325 C183.857143,279.475325 197.267203,293.625974 204.694286,293.625974 C212.121368,293.625974 225.531429,279.475325 225.531429,279.475325" id="Line" stroke="#191919" stroke-width="4" stroke-linecap="square" transform="translate(204.694286, 286.550649) scale(1, -1) rotate(90.000000) translate(-204.694286, -286.550649) "></path>
            <path d="M177.728571,363.2 C177.728571,363.2 204.548692,397.574286 219.402857,397.574286 C234.257023,397.574286 261.077143,363.2 261.077143,363.2" id="Line" stroke="#191919" stroke-width="10" stroke-linecap="square"></path>
        </g>
    </g>
</svg>