
<svg width="429px" height="890px" viewBox="-6483 -1704 429 890" version="1.1" xmlns="http://www.w3.org/2000/svg" xmlns:xlink="http://www.w3.org/1999/xlink">
    <!-- Generator: Sketch 42 (36781) - http://www.bohemiancoding.com/sketch -->
    <desc>Created with Sketch.</desc>
    <defs>
        <path d="M13.2754172,9.15642927 C36.3333474,-1.87024898 97.6006724,8.02748506 97.6006724,8.02748506 C101.967293,8.65098373 106.417108,12.6292354 107.394632,16.9248918 C107.394632,16.9248918 115.133685,42.2598734 105.507138,53.2631422 C95.8805918,64.2664111 21.206581,54.2344318 21.206581,54.2344318 C16.8263202,53.6980034 11.3628757,50.244186 9.21042955,46.3874412 C9.21042955,46.3874412 -9.78251309,20.1831075 13.2754172,9.15642927 Z" id="path-1"></path>
        <mask id="mask-2" maskContentUnits="userSpaceOnUse" maskUnits="objectBoundingBox" x="0" y="0" width="108.487128" height="54.4738149" fill="white">
            <use xlink:href="#path-1"></use>
        </mask>
        <path d="M4.62415514,3.95343777 C10.220445,-2.5581879 21.4130248,-2.5581879 27.0093146,3.95343777 C32.6056045,10.4650634 27.0093146,29.9999404 27.0093146,29.9999404 L4.62415514,29.9999404 C4.62415514,29.9999404 -0.972134732,10.4650634 4.62415514,3.95343777 Z" id="path-3"></path>
        <mask id="mask-4" maskContentUnits="userSpaceOnUse" maskUnits="objectBoundingBox" x="0" y="0" width="27.3596394" height="30.9302219" fill="white">
            <use xlink:href="#path-3"></use>
        </mask>
        <path d="M167.003515,222.118754 C178.901483,214.761319 227.191287,214.772406 232.006925,222.118754 C236.822564,229.465101 236.266581,398.337192 232.006925,405.42582 C227.747269,412.514449 172.957388,416.078967 167.003515,405.42582 C161.049643,394.772674 155.105548,229.476188 167.003515,222.118754 Z" id="path-5"></path>
        <mask id="mask-6" maskContentUnits="userSpaceOnUse" maskUnits="objectBoundingBox" x="0" y="0" width="75.2806401" height="195.539993" fill="white">
            <use xlink:href="#path-5"></use>
        </mask>
        <path d="M12.0090464,5.53163831 C35.0669766,-5.49503993 96.3343016,4.4026941 96.3343016,4.4026941 C100.700922,5.02619277 105.150738,9.00444441 106.128261,13.3001009 C106.128261,13.3001009 113.867314,38.6350825 104.240767,49.6383513 C94.614221,60.6416201 19.9402102,50.6096409 19.9402102,50.6096409 C15.5599493,50.0732125 10.0965048,46.6193951 7.94405874,42.7626502 C7.94405874,42.7626502 -11.0488839,16.5583166 12.0090464,5.53163831 Z" id="path-7"></path>
        <mask id="mask-8" maskContentUnits="userSpaceOnUse" maskUnits="objectBoundingBox" x="0" y="0" width="108.487128" height="54.4738149" fill="white">
            <use xlink:href="#path-7"></use>
        </mask>
        <path d="M4.62415514,3.95343777 C10.220445,-2.5581879 21.4130248,-2.5581879 27.0093146,3.95343777 C32.6056045,10.4650634 27.0093146,29.9999404 27.0093146,29.9999404 L4.62415514,29.9999404 C4.62415514,29.9999404 -0.972134732,10.4650634 4.62415514,3.95343777 Z" id="path-9"></path>
        <mask id="mask-10" maskContentUnits="userSpaceOnUse" maskUnits="objectBoundingBox" x="0" y="0" width="27.3596394" height="30.9302219" fill="white">
            <use xlink:href="#path-9"></use>
        </mask>
        <path d="M9.28967367,6.11918765 C21.1876412,-0.971828587 69.4774454,-0.96114342 74.2930836,6.11918765 C79.1087219,13.1995187 78.5527395,175.956629 74.2930836,182.788573 C70.0334278,189.620517 15.2435464,193.055961 9.28967367,182.788573 C3.33580096,172.521186 -2.60829387,13.2102039 9.28967367,6.11918765 Z" id="path-11"></path>
        <mask id="mask-12" maskContentUnits="userSpaceOnUse" maskUnits="objectBoundingBox" x="0" y="0" width="75.2806401" height="188.459349" fill="white">
            <use xlink:href="#path-11"></use>
        </mask>
        <path d="M86.4576534,53.9053706 C76.6048048,33.5594236 251.576796,25.116537 225.721725,50.0408721 C192.859731,81.7198928 248.192241,220.56313 257.865511,238.82457 C267.538782,257.086009 89.4173079,259.237367 94.4260439,241.765527 C100.63696,220.100156 114.585669,111.989194 86.4576534,53.9053706 Z" id="path-13"></path>
        <mask id="mask-14" maskContentUnits="userSpaceOnUse" maskUnits="objectBoundingBox" x="0" y="0" width="172.189712" height="219.073388" fill="white">
            <use xlink:href="#path-13"></use>
        </mask>
        <path d="M100.032929,244.975277 C96.099061,244.76812 105.402118,240.987495 105.73928,237.817621 C105.907907,236.232247 110.668819,189.062395 106.870066,132.251522 C103.073406,75.4719516 102.708884,69.0509657 155.593412,22.8396027 C184.999868,-2.85623728 159.553099,132.997027 159.794787,240.245091 C159.813684,248.630467 243.980623,234.723447 245.887275,235.170277 C247.793926,235.617108 255.727208,254.774015 252.624434,258.404764 C249.521659,262.035513 234.485526,271.894524 162.833852,271.894524 C91.1821779,271.894524 77.9015163,265.301342 81.1964545,265.71863 C84.4913927,266.135918 83.3870994,245.3756 84.7966635,240.167937 C84.9501826,239.600758 103.361202,245.150544 100.032929,244.975277 Z" id="path-15"></path>
        <mask id="mask-16" maskContentUnits="userSpaceOnUse" maskUnits="objectBoundingBox" x="0" y="0" width="172.596041" height="252.223362" fill="white">
            <use xlink:href="#path-15"></use>
        </mask>
        <path d="M175.718197,28.8372522 C174.485726,30.2530184 174.975868,28.0187216 177.519776,27.5760148 C180.063685,27.133308 207.191865,10.1803379 214.885773,19.1632376 C222.579682,28.1461373 208.051988,55.7708475 207.146559,59.0423364 C206.24113,62.3138253 208.391377,59.8326762 208.391377,59.8326762 C208.391377,59.8326762 154.426503,76.1421936 148.650791,70.8088473 C142.875079,65.475501 176.950669,27.421486 175.718197,28.8372522 Z" id="path-17"></path>
        <mask id="mask-18" maskContentUnits="userSpaceOnUse" maskUnits="objectBoundingBox" x="0" y="0" width="69.1341748" height="55.3382391" fill="white">
            <use xlink:href="#path-17"></use>
        </mask>
        <path d="M275.774123,42.004854 C278.525211,39.1221727 281.736504,35.6141793 283.54873,33.9166771 C293.81107,24.304001 290.073734,27.8930117 292.774123,31.004854 C318.944017,61.1622035 302.487361,187.345149 304.774123,196.004854 C306.227883,201.510079 262.107067,210.417625 262.630606,207.910882 C277.438422,137.009951 257.817166,65.2364041 275.774123,42.004854 Z" id="path-19"></path>
        <mask id="mask-20" maskContentUnits="userSpaceOnUse" maskUnits="objectBoundingBox" x="0" y="0" width="45.1769582" height="180.66012" fill="white">
            <use xlink:href="#path-19"></use>
        </mask>
        <path d="M21.296818,169.444577 C24.0356938,167.04648 33.2288223,126.571297 76.4638886,89.9300441 C112.786107,59.1473553 180.028651,38.2645601 219.897992,37.7443344 C264.727921,37.1593815 333.853429,64.3309295 368.547051,99.0738753 C401.434992,132.008573 401.006264,165.28244 404.018884,169.444577 C415.734865,185.630993 417.359077,289.315143 411.829538,306.129867 C409.13218,314.332238 310.560445,450.249456 217.203836,453.313287 C119.180943,456.530258 26.1072263,326.549349 21.296818,320.517793 C11.9049964,308.741807 10.6103031,178.801447 21.296818,169.444577 Z" id="path-21"></path>
        <mask id="mask-22" maskContentUnits="userSpaceOnUse" maskUnits="objectBoundingBox" x="0" y="0" width="401.123355" height="415.636954" fill="white">
            <use xlink:href="#path-21"></use>
        </mask>
        <path d="M89.3186358,50.3776953 C89.3186358,50.3776953 129.063537,0.875445561 213.964247,0.875445561 C298.864956,0.875445561 356.763973,50.3776953 356.763973,50.3776953 C356.763973,50.3776953 391.395514,92.172042 410.378957,139.621381 C431.315751,191.953144 436.000707,280.282514 417.196333,297.888944 C397.437126,316.389377 343.443833,163.759516 335.158629,158.69047 C326.796359,153.574273 307.108652,206.164187 208.081588,206.164187 C109.054524,206.164187 110.368807,151.210088 99.1201247,164.851407 C87.3778027,179.091365 33.2516406,320.347314 10.8851475,297.888944 C-12.1327225,274.776522 4.05341063,169.574479 34.2581325,113.686609 C53.6047616,77.8894937 89.3186358,50.3776953 89.3186358,50.3776953 Z" id="path-23"></path>
        <mask id="mask-24" maskContentUnits="userSpaceOnUse" maskUnits="objectBoundingBox" x="0" y="0" width="429" height="299.427738" fill="white">
            <use xlink:href="#path-23"></use>
        </mask>
        <path d="M10.7105825,33.1036326 C16.2962507,21.0033558 52.5446087,3.12307181e-15 90.0360598,0 C127.527511,0 172.452712,19.1541176 175.943449,39.4697158 C182.442778,77.2948931 179.332967,111.937002 170.481206,128.59488 C167.150129,134.863539 144.521502,173.467415 99.0523281,175.273664 C51.0710004,177.179706 37.2545384,165.62861 25.7317522,152.785997 C-17.0198639,105.137584 5.12491424,45.2039094 10.7105825,33.1036326 Z" id="path-25"></path>
        <mask id="mask-26" maskContentUnits="userSpaceOnUse" maskUnits="objectBoundingBox" x="0" y="0" width="179.407732" height="175.480683" fill="white">
            <use xlink:href="#path-25"></use>
        </mask>
        <path d="M144.749453,50.9286655 C144.749453,50.9286655 174.623599,40.7429324 205.160053,40.7429324 C235.696507,40.7429324 266.284372,50.9286655 266.284372,50.9286655 L266.284372,90.3983813 C266.284372,90.3983813 234.413497,68.7536985 204.358755,68.7536985 C174.304013,68.7536985 144.749453,90.3983813 144.749453,90.3983813 L144.749453,50.9286655 Z" id="path-27"></path>
        <mask id="mask-28" maskContentUnits="userSpaceOnUse" maskUnits="objectBoundingBox" x="0" y="0" width="121.534919" height="49.6554489" fill="white">
            <use xlink:href="#path-27"></use>
        </mask>
        <path d="M10.7105825,33.1036326 C16.2962507,21.0033558 52.5446087,3.12307181e-15 90.0360598,0 C127.527511,0 172.452712,19.1541176 175.943449,39.4697158 C182.442778,77.2948931 179.332967,111.937002 170.481206,128.59488 C167.150129,134.863539 144.521502,173.467415 99.0523281,175.273664 C51.0710004,177.179706 37.2545384,165.62861 25.7317522,152.785997 C-17.0198639,105.137584 5.12491424,45.2039094 10.7105825,33.1036326 Z" id="path-29"></path>
        <mask id="mask-30" maskContentUnits="userSpaceOnUse" maskUnits="objectBoundingBox" x="0" y="0" width="179.407732" height="175.480683" fill="white">
            <use xlink:href="#path-29"></use>
        </mask>
        <path d="M237.393689,33.1036326 C242.979357,21.0033558 279.227715,3.12307181e-15 316.719166,0 C354.210617,0 399.135819,19.1541176 402.626556,39.4697158 C409.125884,77.2948931 406.016073,111.937002 397.164312,128.59488 C393.833235,134.863539 371.204609,173.467415 325.735435,175.273664 C277.754107,177.179706 263.937645,165.62861 252.414859,152.785997 C209.663243,105.137584 231.808021,45.2039094 237.393689,33.1036326 Z" id="path-31"></path>
        <mask id="mask-32" maskContentUnits="userSpaceOnUse" maskUnits="objectBoundingBox" x="0" y="0" width="179.407732" height="175.480683" fill="white">
            <use xlink:href="#path-31"></use>
        </mask>
    </defs>
    <g id="Group-3" stroke="none" stroke-width="1" fill="none" fill-rule="evenodd" transform="translate(-6483.000000, -1704.000000)">
        <g id="Group-27" transform="translate(206.500000, 662.000000) scale(-1, 1) translate(-206.500000, -662.000000) translate(27.000000, 434.000000)">
            <ellipse id="Oval-5" stroke="#191919" stroke-width="8" fill="#EFE8D4" transform="translate(338.480270, 214.773708) scale(-1, 1) translate(-338.480270, -214.773708) " cx="338.48027" cy="214.773708" rx="20.5197295" ry="23.7737083"></ellipse>
            <g id="Group-12" transform="translate(197.500000, 423.500000) scale(-1, 1) translate(-197.500000, -423.500000) translate(141.000000, 392.000000)" stroke="#191919">
                <use id="Rectangle-9" mask="url(#mask-2)" stroke-width="16" fill="#EF0808" transform="translate(56.095951, 31.181748) rotate(-4.000000) translate(-56.095951, -31.181748) " xlink:href="#path-1"></use>
                <g id="Group-19" transform="translate(40.112192, 21.518617) rotate(3.000000) translate(-40.112192, -21.518617) translate(24.112192, 7.018617)">
                    <use id="Rectangle-10" mask="url(#mask-4)" stroke-width="8" fill="#FEFEFE" transform="translate(15.816735, 14.534829) rotate(-91.000000) translate(-15.816735, -14.534829) " xlink:href="#path-3"></use>
                    <path d="M4.63561933,8.63290421 L22.4788624,18.1702746" id="Line" stroke-width="5" stroke-linecap="square" transform="translate(13.557241, 13.401589) rotate(-90.000000) translate(-13.557241, -13.401589) "></path>
                    <path d="M11.5467987,10.0742752 L30.4071589,20.1553037" id="Line" stroke-width="4" stroke-linecap="square" transform="translate(20.976979, 15.114789) rotate(-90.000000) translate(-20.976979, -15.114789) "></path>
                    <path d="M3.14561933,9.52795481 L20.9888624,19.0653252" id="Line" stroke-width="4" stroke-linecap="square" transform="translate(12.067241, 14.296640) scale(-1, 1) rotate(-90.000000) translate(-12.067241, -14.296640) "></path>
                    <path d="M12.7328253,9.35970675 L31.5931856,19.4407352" id="Line" stroke-width="4" stroke-linecap="square" transform="translate(22.163005, 14.400221) scale(-1, 1) rotate(-90.000000) translate(-22.163005, -14.400221) "></path>
                </g>
            </g>
            <use id="Rectangle-16" stroke="#191919" mask="url(#mask-6)" stroke-width="16" fill="#0D103C" xlink:href="#path-5"></use>
            <g id="Group-13" transform="translate(148.509902, 422.534721) scale(-1, 1) rotate(-6.000000) translate(-148.509902, -422.534721) translate(93.509902, 395.034721)" stroke="#191919">
                <use id="Rectangle-9" mask="url(#mask-8)" stroke-width="16" fill="#EF0808" xlink:href="#path-7"></use>
                <g id="Group-19" transform="translate(13.670000, 5.200331)">
                    <use id="Rectangle-10" mask="url(#mask-10)" stroke-width="8" fill="#FEFEFE" transform="translate(15.816735, 14.534829) rotate(-91.000000) translate(-15.816735, -14.534829) " xlink:href="#path-9"></use>
                    <path d="M4.63561933,8.63290421 L22.4788624,18.1702746" id="Line" stroke-width="5" stroke-linecap="square" transform="translate(13.557241, 13.401589) rotate(-90.000000) translate(-13.557241, -13.401589) "></path>
                    <path d="M11.5467987,10.0742752 L30.4071589,20.1553037" id="Line" stroke-width="4" stroke-linecap="square" transform="translate(20.976979, 15.114789) rotate(-90.000000) translate(-20.976979, -15.114789) "></path>
                    <path d="M3.14561933,9.52795481 L20.9888624,19.0653252" id="Line" stroke-width="4" stroke-linecap="square" transform="translate(12.067241, 14.296640) scale(-1, 1) rotate(-90.000000) translate(-12.067241, -14.296640) "></path>
                    <path d="M12.7328253,9.35970675 L31.5931856,19.4407352" id="Line" stroke-width="4" stroke-linecap="square" transform="translate(22.163005, 14.400221) scale(-1, 1) rotate(-90.000000) translate(-22.163005, -14.400221) "></path>
                </g>
            </g>
            <g id="Group-18" transform="translate(132.917329, 325.676244) scale(-1, 1) translate(-132.917329, -325.676244) translate(92.917329, 230.296247)" stroke="#191919" stroke-width="16" fill="#0D103C">
                <use id="Rectangle-16" mask="url(#mask-12)" transform="translate(40.059186, 95.034606) scale(-1, 1) rotate(1.000000) translate(-40.059186, -95.034606) " xlink:href="#path-11"></use>
            </g>
            <use id="Combined-Shape" stroke="#191919" mask="url(#mask-14)" stroke-width="16" fill="#1521EE" transform="translate(172.150948, 144.226210) scale(-1, 1) translate(-172.150948, -144.226210) " xlink:href="#path-13"></use>
            <use id="Rectangle-8" stroke="#191919" mask="url(#mask-16)" stroke-width="16" fill="#C653ED" transform="translate(167.038070, 145.782844) scale(-1, 1) translate(-167.038070, -145.782844) " xlink:href="#path-15"></use>
            <g id="Group-6" transform="translate(91.500000, 127.500000) scale(-1, 1) translate(-91.500000, -127.500000) translate(0.000000, 28.000000)">
                <path d="M94.9750196,-4.31209219 C91.1393543,0.352001022 95.3129764,46.6454853 92.3487511,64.9515602 C89.326726,83.6145877 57.7488036,172.68586 57.7488036,172.68586 C57.0136923,174.769673 58.2107256,176.457303 60.4191354,176.45529 L87.5966303,176.430513 C89.8065252,176.428499 91.8135574,174.64813 92.0916768,172.466975 C92.0916768,172.466975 99.6234688,106.358916 123.253529,27.3251551 C128.459795,9.91213195 105.601996,-11.372465 94.9750196,-4.31209219 Z" id="Rectangle-16" stroke="#191919" stroke-width="8" fill="#1521EE" transform="translate(90.773005, 85.377122) rotate(-49.000000) translate(-90.773005, -85.377122) "></path>
                <ellipse id="Oval-5" stroke="#191919" stroke-width="8" fill="#EFE8D4" cx="161.51973" cy="174.773708" rx="20.5197295" ry="23.7737083"></ellipse>
                <path d="M31.9637992,51.9404194 C44.776581,53.3127452 46.5416176,46.709147 46.5416176,35.3739741 C46.5416176,24.0388012 64.6474144,10.8501224 34.7356888,14.849828 C6.78612636,18.5871591 17.8956166,22.1263678 17.8956166,33.4615407 C17.8956166,44.7967136 26.346194,51.3387402 31.9637992,51.9404194 Z" id="Oval" stroke="#1521EE" fill="#1521EE" transform="translate(33.844085, 33.119042) scale(-1, 1) rotate(1.000000) translate(-33.844085, -33.119042) "></path>
                <ellipse id="Oval-2" stroke="#191919" fill="#191919" transform="translate(49.313627, 46.189217) rotate(-23.000000) translate(-49.313627, -46.189217) " cx="49.3136268" cy="46.189217" rx="4.53499985" ry="6"></ellipse>
            </g>
            <use id="Rectangle-6" stroke="#191919" mask="url(#mask-18)" stroke-width="16" fill="#EFE8D4" transform="translate(182.558055, 44.211288) scale(-1, 1) rotate(-45.000000) translate(-182.558055, -44.211288) " xlink:href="#path-17"></use>
            <use id="Rectangle" stroke="#191919" mask="url(#mask-20)" stroke-width="16" fill="#1521EE" transform="translate(285.214462, 118.015784) scale(-1, 1) rotate(31.000000) translate(-285.214462, -118.015784) " xlink:href="#path-19"></use>
            <path d="M253.13498,79.7139667 C263.390789,63.0597157 248.673421,86.5786444 259.524537,84.3390848 C270.375652,82.0995252 255.010854,49.571618 244.764149,51.571618 C234.517443,53.571618 221.291569,62.2676785 221.291569,63.8950955 C221.291569,65.5225125 242.879171,96.3682176 253.13498,79.7139667 Z" id="Oval-3" stroke="#1521EE" fill="#1521EE" transform="translate(242.266085, 68.057830) rotate(48.000000) translate(-242.266085, -68.057830) "></path>
            <path d="M245.499857,93.9999774 C249.089708,93.9999774 252.023863,94.9235877 251.999857,88.9999774 C251.975852,83.0763671 249.089708,83.9999774 245.499857,83.9999774 C241.910006,83.9999774 238.999857,86.2385537 238.999857,88.9999774 C238.999857,91.7614012 241.910006,93.9999774 245.499857,93.9999774 Z" id="Oval-4" stroke="#191919" fill="#191919" transform="translate(245.499930, 88.999977) scale(-1, 1) rotate(-18.000000) translate(-245.499930, -88.999977) "></path>
        </g>
        <g id="Group-29">
            <use id="Rectangle-4" stroke="#191919" mask="url(#mask-22)" stroke-width="20" fill="#EFE8D4" xlink:href="#path-21"></use>
            <use id="Rectangle-3" stroke="#191919" mask="url(#mask-24)" stroke-width="20" fill="#C4BD7A" xlink:href="#path-23"></use>
            <g id="Group-7" transform="translate(0.000000, 141.506494)" stroke="#000000">
                <use id="Rectangle-8" mask="url(#mask-26)" stroke-width="28" fill="#EFE8D4" xlink:href="#path-25"></use>
                <use id="Rectangle-9" mask="url(#mask-28)" stroke-width="2" fill="#000000" xlink:href="#path-27"></use>
                <use id="Rectangle-8" mask="url(#mask-30)" stroke-width="28" fill="#EFE8D4" xlink:href="#path-29"></use>
                <use id="Rectangle-8" mask="url(#mask-32)" stroke-width="28" fill="#EFE8D4" transform="translate(316.386972, 87.740341) scale(-1, 1) translate(-316.386972, -87.740341) " xlink:href="#path-31"></use>
            </g>
            <path d="M148.311429,345.511688 C148.311429,345.511688 175.131549,379.885975 189.985714,379.885975 C204.83988,379.885975 231.66,345.511688 231.66,345.511688" id="Line" stroke="#191919" stroke-width="10" stroke-linecap="square"></path>
            <path d="M170.374286,273.579221 C170.374286,273.579221 183.784346,287.72987 191.211429,287.72987 C198.638511,287.72987 212.048571,273.579221 212.048571,273.579221" id="Line" stroke="#191919" stroke-width="4" stroke-linecap="square" transform="translate(191.211429, 280.654545) scale(1, -1) rotate(90.000000) translate(-191.211429, -280.654545) "></path>
            <g id="Group-26" transform="translate(22.000000, 168.000000)" stroke="#191919" stroke-width="10">
                <ellipse id="Oval" fill="#FEFEFE" cx="66.8642857" cy="60.7221953" rx="66.8014286" ry="43.6778047"></ellipse>
                <ellipse id="Oval-2" fill="#0B138D" cx="56.872619" cy="50.7554479" rx="43.6778571" ry="50.1268765"></ellipse>
                <ellipse id="Oval-3" fill="#FEFEFE" cx="38.6021429" cy="71.8615012" rx="16.2721429" ry="18.4677966"></ellipse>
            </g>
            <g id="Group-25" transform="translate(248.000000, 168.000000)" stroke="#191919" stroke-width="10">
                <ellipse id="Oval" fill="#FEFEFE" cx="67.6214286" cy="60.7221953" rx="66.8014286" ry="43.6778047"></ellipse>
                <ellipse id="Oval-2" fill="#0B138D" cx="57.6297619" cy="50.7554479" rx="43.6778571" ry="50.1268765"></ellipse>
                <ellipse id="Oval-3" fill="#FEFEFE" cx="39.3592857" cy="71.8615012" rx="16.2721429" ry="18.4677966"></ellipse>
            </g>
        </g>
    </g>
</svg>