
<svg width="100px" height="891px" viewBox="-5606 -2674 429 891" version="1.1" xmlns="http://www.w3.org/2000/svg" xmlns:xlink="http://www.w3.org/1999/xlink">
    <!-- Generator: Sketch 42 (36781) - http://www.bohemiancoding.com/sketch -->
    <desc>Created with Sketch.</desc>
    <defs>
        <path d="M13.2754172,9.15642927 C36.3333474,-1.87024898 97.6006724,8.02748506 97.6006724,8.02748506 C101.967293,8.65098373 106.417108,12.6292354 107.394632,16.9248918 C107.394632,16.9248918 115.133685,42.2598734 105.507138,53.2631422 C95.8805918,64.2664111 21.206581,54.2344318 21.206581,54.2344318 C16.8263202,53.6980034 11.3628757,50.244186 9.21042955,46.3874412 C9.21042955,46.3874412 -9.78251309,20.1831075 13.2754172,9.15642927 Z" id="path-1"></path>
        <mask id="mask-2" maskContentUnits="userSpaceOnUse" maskUnits="objectBoundingBox" x="0" y="0" width="108.487128" height="54.4738149" fill="white">
            <use xlink:href="#path-1"></use>
        </mask>
        <path d="M4.62415514,3.95343777 C10.220445,-2.5581879 21.4130248,-2.5581879 27.0093146,3.95343777 C32.6056045,10.4650634 27.0093146,29.9999404 27.0093146,29.9999404 L4.62415514,29.9999404 C4.62415514,29.9999404 -0.972134732,10.4650634 4.62415514,3.95343777 Z" id="path-3"></path>
        <mask id="mask-4" maskContentUnits="userSpaceOnUse" maskUnits="objectBoundingBox" x="0" y="0" width="27.3596394" height="30.9302219" fill="white">
            <use xlink:href="#path-3"></use>
        </mask>
        <path d="M167.003515,222.118754 C178.901483,214.761319 227.191287,214.772406 232.006925,222.118754 C236.822564,229.465101 236.266581,398.337192 232.006925,405.42582 C227.747269,412.514449 172.957388,416.078967 167.003515,405.42582 C161.049643,394.772674 155.105548,229.476188 167.003515,222.118754 Z" id="path-5"></path>
        <mask id="mask-6" maskContentUnits="userSpaceOnUse" maskUnits="objectBoundingBox" x="0" y="0" width="75.2806401" height="195.539993" fill="white">
            <use xlink:href="#path-5"></use>
        </mask>
        <path d="M12.0090464,5.53163831 C35.0669766,-5.49503993 96.3343016,4.4026941 96.3343016,4.4026941 C100.700922,5.02619277 105.150738,9.00444441 106.128261,13.3001009 C106.128261,13.3001009 113.867314,38.6350825 104.240767,49.6383513 C94.614221,60.6416201 19.9402102,50.6096409 19.9402102,50.6096409 C15.5599493,50.0732125 10.0965048,46.6193951 7.94405874,42.7626502 C7.94405874,42.7626502 -11.0488839,16.5583166 12.0090464,5.53163831 Z" id="path-7"></path>
        <mask id="mask-8" maskContentUnits="userSpaceOnUse" maskUnits="objectBoundingBox" x="0" y="0" width="108.487128" height="54.4738149" fill="white">
            <use xlink:href="#path-7"></use>
        </mask>
        <path d="M4.62415514,3.95343777 C10.220445,-2.5581879 21.4130248,-2.5581879 27.0093146,3.95343777 C32.6056045,10.4650634 27.0093146,29.9999404 27.0093146,29.9999404 L4.62415514,29.9999404 C4.62415514,29.9999404 -0.972134732,10.4650634 4.62415514,3.95343777 Z" id="path-9"></path>
        <mask id="mask-10" maskContentUnits="userSpaceOnUse" maskUnits="objectBoundingBox" x="0" y="0" width="27.3596394" height="30.9302219" fill="white">
            <use xlink:href="#path-9"></use>
        </mask>
        <path d="M9.28967367,6.11918765 C21.1876412,-0.971828587 69.4774454,-0.96114342 74.2930836,6.11918765 C79.1087219,13.1995187 78.5527395,175.956629 74.2930836,182.788573 C70.0334278,189.620517 15.2435464,193.055961 9.28967367,182.788573 C3.33580096,172.521186 -2.60829387,13.2102039 9.28967367,6.11918765 Z" id="path-11"></path>
        <mask id="mask-12" maskContentUnits="userSpaceOnUse" maskUnits="objectBoundingBox" x="0" y="0" width="75.2806401" height="188.459349" fill="white">
            <use xlink:href="#path-11"></use>
        </mask>
        <path d="M86.4576534,53.9053706 C76.6048048,33.5594236 251.576796,25.116537 225.721725,50.0408721 C192.859731,81.7198928 248.192241,220.56313 257.865511,238.82457 C267.538782,257.086009 89.4173079,259.237367 94.4260439,241.765527 C100.63696,220.100156 114.585669,111.989194 86.4576534,53.9053706 Z" id="path-13"></path>
        <mask id="mask-14" maskContentUnits="userSpaceOnUse" maskUnits="objectBoundingBox" x="0" y="0" width="172.189712" height="219.073388" fill="white">
            <use xlink:href="#path-13"></use>
        </mask>
        <path d="M100.032929,244.975277 C96.099061,244.76812 105.402118,240.987495 105.73928,237.817621 C105.907907,236.232247 110.668819,189.062395 106.870066,132.251522 C103.073406,75.4719516 102.708884,69.0509657 155.593412,22.8396027 C184.999868,-2.85623728 159.553099,132.997027 159.794787,240.245091 C159.813684,248.630467 243.980623,234.723447 245.887275,235.170277 C247.793926,235.617108 255.727208,254.774015 252.624434,258.404764 C249.521659,262.035513 234.485526,271.894524 162.833852,271.894524 C91.1821779,271.894524 77.9015163,265.301342 81.1964545,265.71863 C84.4913927,266.135918 83.3870994,245.3756 84.7966635,240.167937 C84.9501826,239.600758 103.361202,245.150544 100.032929,244.975277 Z" id="path-15"></path>
        <mask id="mask-16" maskContentUnits="userSpaceOnUse" maskUnits="objectBoundingBox" x="0" y="0" width="172.596041" height="252.223362" fill="white">
            <use xlink:href="#path-15"></use>
        </mask>
        <path d="M175.718197,28.8372522 C174.485726,30.2530184 174.975868,28.0187216 177.519776,27.5760148 C180.063685,27.133308 207.191865,10.1803379 214.885773,19.1632376 C222.579682,28.1461373 208.051988,55.7708475 207.146559,59.0423364 C206.24113,62.3138253 208.391377,59.8326762 208.391377,59.8326762 C208.391377,59.8326762 154.426503,76.1421936 148.650791,70.8088473 C142.875079,65.475501 176.950669,27.421486 175.718197,28.8372522 Z" id="path-17"></path>
        <mask id="mask-18" maskContentUnits="userSpaceOnUse" maskUnits="objectBoundingBox" x="0" y="0" width="69.1341748" height="55.3382391" fill="white">
            <use xlink:href="#path-17"></use>
        </mask>
        <path d="M275.774123,42.004854 C278.525211,39.1221727 281.736504,35.6141793 283.54873,33.9166771 C293.81107,24.304001 290.073734,27.8930117 292.774123,31.004854 C318.944017,61.1622035 302.487361,187.345149 304.774123,196.004854 C306.227883,201.510079 262.107067,210.417625 262.630606,207.910882 C277.438422,137.009951 257.817166,65.2364041 275.774123,42.004854 Z" id="path-19"></path>
        <mask id="mask-20" maskContentUnits="userSpaceOnUse" maskUnits="objectBoundingBox" x="0" y="0" width="45.1769582" height="180.66012" fill="white">
            <use xlink:href="#path-19"></use>
        </mask>
        <path d="M20.9968629,169.444577 C23.6971629,167.04648 32.7608107,126.571297 75.3869325,89.9300441 C111.19757,59.1473553 177.493036,38.2645601 216.800837,37.7443344 C260.999359,37.1593815 329.151268,64.3309295 363.356247,99.0738753 C395.780978,132.008573 395.358288,165.28244 398.328477,169.444577 C409.879445,185.630993 411.48078,289.315143 406.029122,306.129867 C403.369755,314.332238 306.186354,450.249456 214.144627,453.313287 C117.502338,456.530258 25.7395189,326.549349 20.9968629,320.517793 C11.7373203,308.741807 10.4608622,178.801447 20.9968629,169.444577 Z" id="path-21"></path>
        <mask id="mask-22" maskContentUnits="userSpaceOnUse" maskUnits="objectBoundingBox" x="0" y="0" width="395.47373" height="415.636954" fill="white">
            <use xlink:href="#path-21"></use>
        </mask>
        <path d="M88.0606268,50.3776953 C88.0606268,50.3776953 127.245741,0.875445561 210.950666,0.875445561 C294.65559,0.875445561 351.739128,50.3776953 351.739128,50.3776953 C351.739128,50.3776953 385.882901,92.172042 404.598972,139.621381 C425.240881,191.953144 429.859852,280.282514 411.320328,297.888944 C391.83942,316.389377 338.606596,163.759516 330.438085,158.69047 C322.193593,153.574273 302.783178,206.164187 205.150862,206.164187 C107.518545,206.164187 108.814317,151.210088 97.7240666,164.851407 C86.1471295,179.091365 32.7833077,320.347314 10.7318356,297.888944 C-11.9618391,274.776522 3.99632034,169.574479 33.7756236,113.686609 C52.8497649,77.8894937 88.0606268,50.3776953 88.0606268,50.3776953 Z" id="path-23"></path>
        <mask id="mask-24" maskContentUnits="userSpaceOnUse" maskUnits="objectBoundingBox" x="0" y="0" width="422.957746" height="299.427738" fill="white">
            <use xlink:href="#path-23"></use>
        </mask>
        <path d="M10.5597292,33.1036326 C16.066726,21.0033558 51.8045438,3.12307181e-15 88.7679463,0 C125.731349,0 170.023801,19.1541176 173.465372,39.4697158 C179.873161,77.2948931 176.807151,111.937002 168.080062,128.59488 C164.795902,134.863539 142.485988,173.467415 97.6572249,175.273664 C50.3516906,177.179706 36.7298265,165.62861 25.3693331,152.785997 C-16.7801475,105.137584 5.05273235,45.2039094 10.5597292,33.1036326 Z" id="path-25"></path>
        <mask id="mask-26" maskContentUnits="userSpaceOnUse" maskUnits="objectBoundingBox" x="0" y="0" width="176.880862" height="175.480683" fill="white">
            <use xlink:href="#path-25"></use>
        </mask>
        <path d="M142.710729,50.9286655 C142.710729,50.9286655 172.164112,40.7429324 202.270475,40.7429324 C232.376838,40.7429324 262.533888,50.9286655 262.533888,50.9286655 L262.533888,90.3983813 C262.533888,90.3983813 231.111898,68.7536985 201.480463,68.7536985 C171.849027,68.7536985 142.710729,90.3983813 142.710729,90.3983813 L142.710729,50.9286655 Z" id="path-27"></path>
        <mask id="mask-28" maskContentUnits="userSpaceOnUse" maskUnits="objectBoundingBox" x="0" y="0" width="119.823159" height="49.6554489" fill="white">
            <use xlink:href="#path-27"></use>
        </mask>
        <path d="M10.5597292,33.1036326 C16.066726,21.0033558 51.8045438,3.12307181e-15 88.7679463,0 C125.731349,0 170.023801,19.1541176 173.465372,39.4697158 C179.873161,77.2948931 176.807151,111.937002 168.080062,128.59488 C164.795902,134.863539 142.485988,173.467415 97.6572249,175.273664 C50.3516906,177.179706 36.7298265,165.62861 25.3693331,152.785997 C-16.7801475,105.137584 5.05273235,45.2039094 10.5597292,33.1036326 Z" id="path-29"></path>
        <mask id="mask-30" maskContentUnits="userSpaceOnUse" maskUnits="objectBoundingBox" x="0" y="0" width="176.880862" height="175.480683" fill="white">
            <use xlink:href="#path-29"></use>
        </mask>
        <path d="M234.050116,33.1036326 C239.557113,21.0033558 275.29493,3.12307181e-15 312.258333,0 C349.221735,0 393.514187,19.1541176 396.955759,39.4697158 C403.363548,77.2948931 400.297537,111.937002 391.570449,128.59488 C388.286288,134.863539 365.976375,173.467415 321.147612,175.273664 C273.842077,177.179706 260.220213,165.62861 248.85972,152.785997 C206.710239,105.137584 228.543119,45.2039094 234.050116,33.1036326 Z" id="path-31"></path>
        <mask id="mask-32" maskContentUnits="userSpaceOnUse" maskUnits="objectBoundingBox" x="0" y="0" width="176.880862" height="175.480683" fill="white">
            <use xlink:href="#path-31"></use>
        </mask>
    </defs>
    <g id="Group-40" stroke="none" stroke-width="1" fill="none" fill-rule="evenodd" transform="translate(-5606.000000, -2674.000000)">
        <g id="Group-27" transform="translate(38.000000, 435.000000)">
            <ellipse id="Oval-5" stroke="#191919" stroke-width="8" fill="#EFE8D4" transform="translate(338.480270, 214.773708) scale(-1, 1) translate(-338.480270, -214.773708) " cx="338.48027" cy="214.773708" rx="20.5197295" ry="23.7737083"></ellipse>
            <g id="Group-12" transform="translate(197.500000, 423.500000) scale(-1, 1) translate(-197.500000, -423.500000) translate(141.000000, 392.000000)" stroke="#191919">
                <use id="Rectangle-9" mask="url(#mask-2)" stroke-width="16" fill="#EF0808" transform="translate(56.095951, 31.181748) rotate(-4.000000) translate(-56.095951, -31.181748) " xlink:href="#path-1"></use>
                <g id="Group-19" transform="translate(40.112192, 21.518617) rotate(3.000000) translate(-40.112192, -21.518617) translate(24.112192, 7.018617)">
                    <use id="Rectangle-10" mask="url(#mask-4)" stroke-width="8" fill="#FEFEFE" transform="translate(15.816735, 14.534829) rotate(-91.000000) translate(-15.816735, -14.534829) " xlink:href="#path-3"></use>
                    <path d="M4.63561933,8.63290421 L22.4788624,18.1702746" id="Line" stroke-width="5" stroke-linecap="square" transform="translate(13.557241, 13.401589) rotate(-90.000000) translate(-13.557241, -13.401589) "></path>
                    <path d="M11.5467987,10.0742752 L30.4071589,20.1553037" id="Line" stroke-width="4" stroke-linecap="square" transform="translate(20.976979, 15.114789) rotate(-90.000000) translate(-20.976979, -15.114789) "></path>
                    <path d="M3.14561933,9.52795481 L20.9888624,19.0653252" id="Line" stroke-width="4" stroke-linecap="square" transform="translate(12.067241, 14.296640) scale(-1, 1) rotate(-90.000000) translate(-12.067241, -14.296640) "></path>
                    <path d="M12.7328253,9.35970675 L31.5931856,19.4407352" id="Line" stroke-width="4" stroke-linecap="square" transform="translate(22.163005, 14.400221) scale(-1, 1) rotate(-90.000000) translate(-22.163005, -14.400221) "></path>
                </g>
            </g>
            <use id="Rectangle-16" stroke="#191919" mask="url(#mask-6)" stroke-width="16" fill="#0D103C" xlink:href="#path-5"></use>
            <g id="Group-13" transform="translate(148.509902, 422.534721) scale(-1, 1) rotate(-6.000000) translate(-148.509902, -422.534721) translate(93.509902, 395.034721)" stroke="#191919">
                <use id="Rectangle-9" mask="url(#mask-8)" stroke-width="16" fill="#EF0808" xlink:href="#path-7"></use>
                <g id="Group-19" transform="translate(13.670000, 5.200331)">
                    <use id="Rectangle-10" mask="url(#mask-10)" stroke-width="8" fill="#FEFEFE" transform="translate(15.816735, 14.534829) rotate(-91.000000) translate(-15.816735, -14.534829) " xlink:href="#path-9"></use>
                    <path d="M4.63561933,8.63290421 L22.4788624,18.1702746" id="Line" stroke-width="5" stroke-linecap="square" transform="translate(13.557241, 13.401589) rotate(-90.000000) translate(-13.557241, -13.401589) "></path>
                    <path d="M11.5467987,10.0742752 L30.4071589,20.1553037" id="Line" stroke-width="4" stroke-linecap="square" transform="translate(20.976979, 15.114789) rotate(-90.000000) translate(-20.976979, -15.114789) "></path>
                    <path d="M3.14561933,9.52795481 L20.9888624,19.0653252" id="Line" stroke-width="4" stroke-linecap="square" transform="translate(12.067241, 14.296640) scale(-1, 1) rotate(-90.000000) translate(-12.067241, -14.296640) "></path>
                    <path d="M12.7328253,9.35970675 L31.5931856,19.4407352" id="Line" stroke-width="4" stroke-linecap="square" transform="translate(22.163005, 14.400221) scale(-1, 1) rotate(-90.000000) translate(-22.163005, -14.400221) "></path>
                </g>
            </g>
            <g id="Group-18" transform="translate(132.917329, 325.676244) scale(-1, 1) translate(-132.917329, -325.676244) translate(92.917329, 230.296247)" stroke="#191919" stroke-width="16" fill="#0D103C">
                <use id="Rectangle-16" mask="url(#mask-12)" transform="translate(40.059186, 95.034606) scale(-1, 1) rotate(1.000000) translate(-40.059186, -95.034606) " xlink:href="#path-11"></use>
            </g>
            <use id="Combined-Shape" stroke="#191919" mask="url(#mask-14)" stroke-width="16" fill="#1521EE" transform="translate(172.150948, 144.226210) scale(-1, 1) translate(-172.150948, -144.226210) " xlink:href="#path-13"></use>
            <use id="Rectangle-8" stroke="#191919" mask="url(#mask-16)" stroke-width="16" fill="#C653ED" transform="translate(167.038070, 145.782844) scale(-1, 1) translate(-167.038070, -145.782844) " xlink:href="#path-15"></use>
            <g id="Group-6" transform="translate(91.500000, 127.500000) scale(-1, 1) translate(-91.500000, -127.500000) translate(0.000000, 28.000000)">
                <path d="M94.9750196,-4.31209219 C91.1393543,0.352001022 95.3129764,46.6454853 92.3487511,64.9515602 C89.326726,83.6145877 57.7488036,172.68586 57.7488036,172.68586 C57.0136923,174.769673 58.2107256,176.457303 60.4191354,176.45529 L87.5966303,176.430513 C89.8065252,176.428499 91.8135574,174.64813 92.0916768,172.466975 C92.0916768,172.466975 99.6234688,106.358916 123.253529,27.3251551 C128.459795,9.91213195 105.601996,-11.372465 94.9750196,-4.31209219 Z" id="Rectangle-16" stroke="#191919" stroke-width="8" fill="#1521EE" transform="translate(90.773005, 85.377122) rotate(-49.000000) translate(-90.773005, -85.377122) "></path>
                <ellipse id="Oval-5" stroke="#191919" stroke-width="8" fill="#EFE8D4" cx="161.51973" cy="174.773708" rx="20.5197295" ry="23.7737083"></ellipse>
                <path d="M31.9637992,51.9404194 C44.776581,53.3127452 46.5416176,46.709147 46.5416176,35.3739741 C46.5416176,24.0388012 64.6474144,10.8501224 34.7356888,14.849828 C6.78612636,18.5871591 17.8956166,22.1263678 17.8956166,33.4615407 C17.8956166,44.7967136 26.346194,51.3387402 31.9637992,51.9404194 Z" id="Oval" stroke="#1521EE" fill="#1521EE" transform="translate(33.844085, 33.119042) scale(-1, 1) rotate(1.000000) translate(-33.844085, -33.119042) "></path>
                <ellipse id="Oval-2" stroke="#191919" fill="#191919" transform="translate(49.313627, 46.189217) rotate(-23.000000) translate(-49.313627, -46.189217) " cx="49.3136268" cy="46.189217" rx="4.53499985" ry="6"></ellipse>
            </g>
            <use id="Rectangle-6" stroke="#191919" mask="url(#mask-18)" stroke-width="16" fill="#EFE8D4" transform="translate(182.558055, 44.211288) scale(-1, 1) rotate(-45.000000) translate(-182.558055, -44.211288) " xlink:href="#path-17"></use>
            <use id="Rectangle" stroke="#191919" mask="url(#mask-20)" stroke-width="16" fill="#1521EE" transform="translate(285.214462, 118.015784) scale(-1, 1) rotate(31.000000) translate(-285.214462, -118.015784) " xlink:href="#path-19"></use>
            <path d="M253.13498,79.7139667 C263.390789,63.0597157 248.673421,86.5786444 259.524537,84.3390848 C270.375652,82.0995252 255.010854,49.571618 244.764149,51.571618 C234.517443,53.571618 221.291569,62.2676785 221.291569,63.8950955 C221.291569,65.5225125 242.879171,96.3682176 253.13498,79.7139667 Z" id="Oval-3" stroke="#1521EE" fill="#1521EE" transform="translate(242.266085, 68.057830) rotate(48.000000) translate(-242.266085, -68.057830) "></path>
            <path d="M245.499857,93.9999774 C249.089708,93.9999774 252.023863,94.9235877 251.999857,88.9999774 C251.975852,83.0763671 249.089708,83.9999774 245.499857,83.9999774 C241.910006,83.9999774 238.999857,86.2385537 238.999857,88.9999774 C238.999857,91.7614012 241.910006,93.9999774 245.499857,93.9999774 Z" id="Oval-4" stroke="#191919" fill="#191919" transform="translate(245.499930, 88.999977) scale(-1, 1) rotate(-18.000000) translate(-245.499930, -88.999977) "></path>
        </g>
        <g id="Group-35">
            <use id="Rectangle-4" stroke="#191919" mask="url(#mask-22)" stroke-width="20" fill="#EFE8D4" xlink:href="#path-21"></use>
            <use id="Rectangle-3" stroke="#191919" mask="url(#mask-24)" stroke-width="20" fill="#C4BD7A" xlink:href="#path-23"></use>
            <g id="Group-7" transform="translate(27.794366, 137.968831)" stroke="#000000">
                <use id="Rectangle-8" mask="url(#mask-26)" stroke-width="28" fill="#EFE8D4" xlink:href="#path-25"></use>
                <use id="Rectangle-9" mask="url(#mask-28)" stroke-width="2" fill="#000000" xlink:href="#path-27"></use>
                <use id="Rectangle-8" mask="url(#mask-30)" stroke-width="28" fill="#EFE8D4" xlink:href="#path-29"></use>
                <use id="Rectangle-8" mask="url(#mask-32)" stroke-width="28" fill="#EFE8D4" transform="translate(311.930818, 87.740341) scale(-1, 1) translate(-311.930818, -87.740341) " xlink:href="#path-31"></use>
            </g>
            <path d="M227.467073,319.568831 C255.698288,319.568831 350.325905,391.834214 325.910704,415.867646 C301.495503,439.901079 122.092409,430.259283 114.080981,415.179091 C106.069553,400.0989 199.235858,319.568831 227.467073,319.568831 Z" id="Triangle" stroke="#191919" stroke-width="10" fill="#FEFEFE" transform="translate(221.744665, 375.003998) scale(1, -1) translate(-221.744665, -375.003998) "></path>
            <path d="M216.312676,268.862338 C216.312676,268.862338 229.533862,283.012987 236.856338,283.012987 C244.178814,283.012987 257.4,268.862338 257.4,268.862338" id="Line" stroke="#191919" stroke-width="4" stroke-linecap="square" transform="translate(236.856338, 275.937662) scale(-1, -1) rotate(90.000000) translate(-236.856338, -275.937662) "></path>
            <g id="Group-28" transform="translate(274.000000, 168.000000)" stroke="#191919" stroke-width="10">
                <ellipse id="Oval" fill="#FEFEFE" cx="66.1788732" cy="57.2778047" rx="65.8605634" ry="43.6778047"></ellipse>
                <ellipse id="Oval-2" fill="#0B138D" cx="72.0391767" cy="50.7554479" rx="43.0626761" ry="50.1268765"></ellipse>
                <ellipse id="Oval-3" fill="#FEFEFE" cx="94.6494271" cy="63.6535916" rx="16.0429577" ry="18.4677966"></ellipse>
            </g>
            <g id="Group-31" transform="translate(50.000000, 168.000000)" stroke="#191919" stroke-width="10">
                <ellipse id="Oval" fill="#FEFEFE" cx="66.615493" cy="57.2778047" rx="65.8605634" ry="43.6778047"></ellipse>
                <ellipse id="Oval-2" fill="#0B138D" cx="72.4757964" cy="50.7554479" rx="43.0626761" ry="50.1268765"></ellipse>
                <ellipse id="Oval-3" fill="#FEFEFE" cx="95.0860468" cy="63.6535916" rx="16.0429577" ry="18.4677966"></ellipse>
            </g>
        </g>
    </g>
</svg>